solid OpenSCAD_Model
  facet normal -0.994522 0.104528 0
    outer loop
      vertex -6 0 0
      vertex -6 0 7
      vertex -5.86889 1.24747 0
    endloop
  endfacet
  facet normal -0.994522 0.104528 0
    outer loop
      vertex -5.86889 1.24747 0
      vertex -6 0 7
      vertex -5.86889 1.24747 7
    endloop
  endfacet
  facet normal -0.994522 -0.104528 0
    outer loop
      vertex -6 0 0
      vertex -5.86889 -1.24747 0
      vertex -6 0 7
    endloop
  endfacet
  facet normal -0.994522 -0.104528 0
    outer loop
      vertex -6 0 7
      vertex -5.86889 -1.24747 0
      vertex -5.86889 -1.24747 7
    endloop
  endfacet
  facet normal 0 0 -1
    outer loop
      vertex -6 0 0
      vertex -5.86889 1.24747 0
      vertex -5.86889 -1.24747 0
    endloop
  endfacet
  facet normal 0 0 -1
    outer loop
      vertex -5.86889 -1.24747 0
      vertex -5.86889 1.24747 0
      vertex -5.48127 2.44042 0
    endloop
  endfacet
  facet normal 0 0 -1
    outer loop
      vertex -5.86889 -1.24747 0
      vertex -5.48127 2.44042 0
      vertex -4.8541 3.52671 0
    endloop
  endfacet
  facet normal 0 0 -1
    outer loop
      vertex -5.86889 -1.24747 0
      vertex -4.8541 3.52671 0
      vertex -4.01478 4.45887 0
    endloop
  endfacet
  facet normal 0 0 -1
    outer loop
      vertex -5.86889 -1.24747 0
      vertex -4.01478 4.45887 0
      vertex -3 5.19615 0
    endloop
  endfacet
  facet normal 0 0 -1
    outer loop
      vertex -5.86889 -1.24747 0
      vertex -3 5.19615 0
      vertex -1.8541 5.70634 0
    endloop
  endfacet
  facet normal 0 0 -1
    outer loop
      vertex -5.86889 -1.24747 0
      vertex -1.8541 5.70634 0
      vertex -0.627171 5.96713 0
    endloop
  endfacet
  facet normal 0 0 -1
    outer loop
      vertex -5.86889 -1.24747 0
      vertex -0.627171 5.96713 0
      vertex 0.627171 5.96713 0
    endloop
  endfacet
  facet normal 0 0 -1
    outer loop
      vertex -5.86889 -1.24747 0
      vertex 0.627171 5.96713 0
      vertex 1.8541 5.70634 0
    endloop
  endfacet
  facet normal 0 0 -1
    outer loop
      vertex -0.803444 2.47275 0
      vertex 1.8541 5.70634 0
      vertex 3 5.19615 0
    endloop
  endfacet
  facet normal 0 0 -1
    outer loop
      vertex 0.271774 2.58576 0
      vertex 3 5.19615 0
      vertex 4.01478 4.45887 0
    endloop
  endfacet
  facet normal 0 0 -1
    outer loop
      vertex 1.3 2.25167 0
      vertex 4.01478 4.45887 0
      vertex 4.8541 3.52671 0
    endloop
  endfacet
  facet normal 0 0 -1
    outer loop
      vertex 2.10344 1.52824 0
      vertex 4.8541 3.52671 0
      vertex 5.48127 2.44042 0
    endloop
  endfacet
  facet normal 0 0 -1
    outer loop
      vertex 2.37522 1.05751 0
      vertex 5.48127 2.44042 0
      vertex 5.86889 1.24747 0
    endloop
  endfacet
  facet normal 0 0 -1
    outer loop
      vertex 2.6 0 0
      vertex 5.86889 1.24747 0
      vertex 6 0 0
    endloop
  endfacet
  facet normal 0 0 -1
    outer loop
      vertex 2.37522 -1.05751 0
      vertex 6 0 0
      vertex 5.86889 -1.24747 0
    endloop
  endfacet
  facet normal 0 0 -1
    outer loop
      vertex 1.73974 -1.93218 0
      vertex 5.86889 -1.24747 0
      vertex 5.48127 -2.44042 0
    endloop
  endfacet
  facet normal 0 0 -1
    outer loop
      vertex 1.3 -2.25167 0
      vertex 5.48127 -2.44042 0
      vertex 5 -3.27401 0
    endloop
  endfacet
  facet normal 0 0 -1
    outer loop
      vertex -0.271774 -2.58576 0
      vertex 5 -3.27401 0
      vertex 5 -12 0
    endloop
  endfacet
  facet normal 0 0 -1
    outer loop
      vertex 1.75 -13.0383 0
      vertex 5 -16 0
      vertex 8.88178e-016 -16 0
    endloop
  endfacet
  facet normal 0 0 -1
    outer loop
      vertex -1.75 -13.0383 0
      vertex 8.88178e-016 -16 0
      vertex -5 -16 0
    endloop
  endfacet
  facet normal 0 0 -1
    outer loop
      vertex 1.75 -13.0383 0
      vertex 8.88178e-016 -16 0
      vertex -1.75 -13.0383 0
    endloop
  endfacet
  facet normal 0 0 -1
    outer loop
      vertex -1.75 -11.5466 0
      vertex -5 -3.27401 0
      vertex 1.75 -11.5466 0
    endloop
  endfacet
  facet normal 0 0 -1
    outer loop
      vertex -2.54318 -0.54057 0
      vertex -5.86889 -1.24747 0
      vertex -2.6 0 0
    endloop
  endfacet
  facet normal 0 0 -1
    outer loop
      vertex -2.37522 -1.05751 0
      vertex -5.86889 -1.24747 0
      vertex -2.54318 -0.54057 0
    endloop
  endfacet
  facet normal 0 0 -1
    outer loop
      vertex -2.10344 -1.52824 0
      vertex -5.86889 -1.24747 0
      vertex -2.37522 -1.05751 0
    endloop
  endfacet
  facet normal 0 0 -1
    outer loop
      vertex -1.73974 -1.93218 0
      vertex -5.86889 -1.24747 0
      vertex -2.10344 -1.52824 0
    endloop
  endfacet
  facet normal 0 0 -1
    outer loop
      vertex 1.3 -2.25167 0
      vertex 5 -3.27401 0
      vertex 0.803444 -2.47275 0
    endloop
  endfacet
  facet normal 0 0 -1
    outer loop
      vertex -1.3 -2.25167 0
      vertex -5.86889 -1.24747 0
      vertex -1.73974 -1.93218 0
    endloop
  endfacet
  facet normal 0 0 -1
    outer loop
      vertex 0.271774 -2.58576 0
      vertex 5 -3.27401 0
      vertex -0.271774 -2.58576 0
    endloop
  endfacet
  facet normal 0 0 -1
    outer loop
      vertex -5.86889 -1.24747 0
      vertex -1.3 -2.25167 0
      vertex 5 -12 0
    endloop
  endfacet
  facet normal 0 0 -1
    outer loop
      vertex 0.803444 -2.47275 0
      vertex 5 -3.27401 0
      vertex 0.271774 -2.58576 0
    endloop
  endfacet
  facet normal 0 0 -1
    outer loop
      vertex -1.3 -2.25167 0
      vertex -0.803444 -2.47275 0
      vertex 5 -12 0
    endloop
  endfacet
  facet normal 0 0 -1
    outer loop
      vertex -0.803444 -2.47275 0
      vertex -0.271774 -2.58576 0
      vertex 5 -12 0
    endloop
  endfacet
  facet normal 0 0 -1
    outer loop
      vertex 1.73974 -1.93218 0
      vertex 5.48127 -2.44042 0
      vertex 1.3 -2.25167 0
    endloop
  endfacet
  facet normal 0 0 -1
    outer loop
      vertex 2.10344 -1.52824 0
      vertex 5.86889 -1.24747 0
      vertex 1.73974 -1.93218 0
    endloop
  endfacet
  facet normal 0 0 -1
    outer loop
      vertex 2.37522 -1.05751 0
      vertex 5.86889 -1.24747 0
      vertex 2.10344 -1.52824 0
    endloop
  endfacet
  facet normal 0 0 -1
    outer loop
      vertex 2.54318 -0.54057 0
      vertex 6 0 0
      vertex 2.37522 -1.05751 0
    endloop
  endfacet
  facet normal 0 0 -1
    outer loop
      vertex 2.6 0 0
      vertex 6 0 0
      vertex 2.54318 -0.54057 0
    endloop
  endfacet
  facet normal 0 0 -1
    outer loop
      vertex 2.54318 0.54057 0
      vertex 5.86889 1.24747 0
      vertex 2.6 0 0
    endloop
  endfacet
  facet normal 0 0 -1
    outer loop
      vertex 2.10344 1.52824 0
      vertex 5.48127 2.44042 0
      vertex 2.37522 1.05751 0
    endloop
  endfacet
  facet normal 0 0 -1
    outer loop
      vertex 1.73974 1.93218 0
      vertex 4.8541 3.52671 0
      vertex 2.10344 1.52824 0
    endloop
  endfacet
  facet normal 0 0 -1
    outer loop
      vertex 1.3 2.25167 0
      vertex 4.8541 3.52671 0
      vertex 1.73974 1.93218 0
    endloop
  endfacet
  facet normal 0 0 -1
    outer loop
      vertex 0.803444 2.47275 0
      vertex 4.01478 4.45887 0
      vertex 1.3 2.25167 0
    endloop
  endfacet
  facet normal 0 0 -1
    outer loop
      vertex -0.271774 2.58576 0
      vertex 3 5.19615 0
      vertex 0.271774 2.58576 0
    endloop
  endfacet
  facet normal 0 0 -1
    outer loop
      vertex -0.803444 2.47275 0
      vertex 3 5.19615 0
      vertex -0.271774 2.58576 0
    endloop
  endfacet
  facet normal 0 0 -1
    outer loop
      vertex -1.3 2.25167 0
      vertex 1.8541 5.70634 0
      vertex -0.803444 2.47275 0
    endloop
  endfacet
  facet normal 0 0 -1
    outer loop
      vertex -2.10344 1.52824 0
      vertex -5.86889 -1.24747 0
      vertex -1.73974 1.93218 0
    endloop
  endfacet
  facet normal 0 0 -1
    outer loop
      vertex -1.73974 1.93218 0
      vertex 1.8541 5.70634 0
      vertex -1.3 2.25167 0
    endloop
  endfacet
  facet normal 0 0 -1
    outer loop
      vertex -5.86889 -1.24747 0
      vertex 1.8541 5.70634 0
      vertex -1.73974 1.93218 0
    endloop
  endfacet
  facet normal 0 0 -1
    outer loop
      vertex -2.37522 1.05751 0
      vertex -5.86889 -1.24747 0
      vertex -2.10344 1.52824 0
    endloop
  endfacet
  facet normal 0 0 -1
    outer loop
      vertex -2.54318 0.54057 0
      vertex -5.86889 -1.24747 0
      vertex -2.37522 1.05751 0
    endloop
  endfacet
  facet normal 0 0 -1
    outer loop
      vertex 1.75 -11.5466 0
      vertex 5 -16 0
      vertex 1.75 -13.0383 0
    endloop
  endfacet
  facet normal 0 0 -1
    outer loop
      vertex -5 -3.27401 0
      vertex -5.86889 -1.24747 0
      vertex 1.75 -11.5466 0
    endloop
  endfacet
  facet normal 0 0 -1
    outer loop
      vertex -2.6 0 0
      vertex -5.86889 -1.24747 0
      vertex -2.54318 0.54057 0
    endloop
  endfacet
  facet normal 0 0 -1
    outer loop
      vertex 0.271774 2.58576 0
      vertex 4.01478 4.45887 0
      vertex 0.803444 2.47275 0
    endloop
  endfacet
  facet normal 0 0 -1
    outer loop
      vertex 2.37522 1.05751 0
      vertex 5.86889 1.24747 0
      vertex 2.54318 0.54057 0
    endloop
  endfacet
  facet normal 0 0 -1
    outer loop
      vertex 5 -12 0
      vertex 5 -16 0
      vertex 1.75 -11.5466 0
    endloop
  endfacet
  facet normal 0 0 -1
    outer loop
      vertex 5 -12 0
      vertex 1.75 -11.5466 0
      vertex -5.86889 -1.24747 0
    endloop
  endfacet
  facet normal 0 0 -1
    outer loop
      vertex -5 -3.27401 0
      vertex -1.75 -11.5466 0
      vertex -1.75 -13.0383 0
    endloop
  endfacet
  facet normal 0 0 -1
    outer loop
      vertex -5 -3.27401 0
      vertex -1.75 -13.0383 0
      vertex -5 -16 0
    endloop
  endfacet
  facet normal 0 0 -1
    outer loop
      vertex -5.48127 -2.44042 0
      vertex -5.86889 -1.24747 0
      vertex -5 -3.27401 0
    endloop
  endfacet
  facet normal -0.951057 0.309017 0
    outer loop
      vertex -5.86889 1.24747 0
      vertex -5.86889 1.24747 7
      vertex -5.48127 2.44042 0
    endloop
  endfacet
  facet normal -0.951057 0.309017 0
    outer loop
      vertex -5.48127 2.44042 0
      vertex -5.86889 1.24747 7
      vertex -5.48127 2.44042 7
    endloop
  endfacet
  facet normal 0 0 1
    outer loop
      vertex -5.86889 1.24747 7
      vertex -6 0 7
      vertex -5.86889 -1.24747 7
    endloop
  endfacet
  facet normal 0 0 1
    outer loop
      vertex -4.8541 -3.52671 7
      vertex -5.86889 1.24747 7
      vertex -5.48127 -2.44042 7
    endloop
  endfacet
  facet normal 0 0 1
    outer loop
      vertex -5.48127 -2.44042 7
      vertex -5.86889 1.24747 7
      vertex -5.86889 -1.24747 7
    endloop
  endfacet
  facet normal 0 0 1
    outer loop
      vertex -4.01478 -4.45887 7
      vertex -5.86889 1.24747 7
      vertex -4.8541 -3.52671 7
    endloop
  endfacet
  facet normal 0 0 1
    outer loop
      vertex -3 -5.19615 7
      vertex -5.86889 1.24747 7
      vertex -4.01478 -4.45887 7
    endloop
  endfacet
  facet normal 0 0 1
    outer loop
      vertex -1.8541 -5.70634 7
      vertex -5.86889 1.24747 7
      vertex -3 -5.19615 7
    endloop
  endfacet
  facet normal 0 0 1
    outer loop
      vertex -0.627171 -5.96713 7
      vertex -5.86889 1.24747 7
      vertex -1.8541 -5.70634 7
    endloop
  endfacet
  facet normal 0 0 1
    outer loop
      vertex 0.627171 -5.96713 7
      vertex -5.86889 1.24747 7
      vertex -0.627171 -5.96713 7
    endloop
  endfacet
  facet normal 0 0 1
    outer loop
      vertex 1.8541 -5.70634 7
      vertex -5.86889 1.24747 7
      vertex 0.627171 -5.96713 7
    endloop
  endfacet
  facet normal 0 0 1
    outer loop
      vertex -1.73974 -1.93218 7
      vertex -5.86889 1.24747 7
      vertex 1.8541 -5.70634 7
    endloop
  endfacet
  facet normal 0 0 1
    outer loop
      vertex -1.73974 -1.93218 7
      vertex -2.10344 -1.52824 7
      vertex -5.86889 1.24747 7
    endloop
  endfacet
  facet normal 0 0 1
    outer loop
      vertex 0.803444 -2.47275 7
      vertex 0.271774 -2.58576 7
      vertex 4.01478 -4.45887 7
    endloop
  endfacet
  facet normal 0 0 1
    outer loop
      vertex 2.54318 0.54057 7
      vertex 2.6 0 7
      vertex 6 0 7
    endloop
  endfacet
  facet normal 0 0 1
    outer loop
      vertex 3 5.19615 7
      vertex -5.86889 1.24747 7
      vertex 4.01478 4.45887 7
    endloop
  endfacet
  facet normal 0 0 1
    outer loop
      vertex 1.8541 5.70634 7
      vertex -5.86889 1.24747 7
      vertex 3 5.19615 7
    endloop
  endfacet
  facet normal 0 0 1
    outer loop
      vertex 0.627171 5.96713 7
      vertex -5.86889 1.24747 7
      vertex 1.8541 5.70634 7
    endloop
  endfacet
  facet normal 0 0 1
    outer loop
      vertex -0.627171 5.96713 7
      vertex -5.86889 1.24747 7
      vertex 0.627171 5.96713 7
    endloop
  endfacet
  facet normal 0 0 1
    outer loop
      vertex -1.8541 5.70634 7
      vertex -5.86889 1.24747 7
      vertex -0.627171 5.96713 7
    endloop
  endfacet
  facet normal 0 0 1
    outer loop
      vertex -3 5.19615 7
      vertex -5.86889 1.24747 7
      vertex -1.8541 5.70634 7
    endloop
  endfacet
  facet normal 0 0 1
    outer loop
      vertex -4.01478 4.45887 7
      vertex -5.86889 1.24747 7
      vertex -3 5.19615 7
    endloop
  endfacet
  facet normal 0 0 1
    outer loop
      vertex -4.8541 3.52671 7
      vertex -5.86889 1.24747 7
      vertex -4.01478 4.45887 7
    endloop
  endfacet
  facet normal 0 0 1
    outer loop
      vertex -5.48127 2.44042 7
      vertex -5.86889 1.24747 7
      vertex -4.8541 3.52671 7
    endloop
  endfacet
  facet normal 0 0 1
    outer loop
      vertex -0.271774 -2.58576 7
      vertex -0.803444 -2.47275 7
      vertex 3 -5.19615 7
    endloop
  endfacet
  facet normal 0 0 1
    outer loop
      vertex -2.6 0 7
      vertex -2.54318 0.54057 7
      vertex -5.86889 1.24747 7
    endloop
  endfacet
  facet normal 0 0 1
    outer loop
      vertex -2.10344 -1.52824 7
      vertex -2.37522 -1.05751 7
      vertex -5.86889 1.24747 7
    endloop
  endfacet
  facet normal 0 0 1
    outer loop
      vertex 1.73974 -1.93218 7
      vertex 1.3 -2.25167 7
      vertex 4.8541 -3.52671 7
    endloop
  endfacet
  facet normal 0 0 1
    outer loop
      vertex 2.54318 -0.54057 7
      vertex 2.37522 -1.05751 7
      vertex 5.86889 -1.24747 7
    endloop
  endfacet
  facet normal 0 0 1
    outer loop
      vertex -2.10344 1.52824 7
      vertex -1.73974 1.93218 7
      vertex -5.86889 1.24747 7
    endloop
  endfacet
  facet normal 0 0 1
    outer loop
      vertex 2.37522 -1.05751 7
      vertex 2.10344 -1.52824 7
      vertex 5.48127 -2.44042 7
    endloop
  endfacet
  facet normal 0 0 1
    outer loop
      vertex -1.73974 1.93218 7
      vertex -1.3 2.25167 7
      vertex -5.86889 1.24747 7
    endloop
  endfacet
  facet normal 0 0 1
    outer loop
      vertex 2.10344 1.52824 7
      vertex 2.37522 1.05751 7
      vertex 5.86889 1.24747 7
    endloop
  endfacet
  facet normal 0 0 1
    outer loop
      vertex -0.803444 2.47275 7
      vertex -0.271774 2.58576 7
      vertex 4.01478 4.45887 7
    endloop
  endfacet
  facet normal 0 0 1
    outer loop
      vertex 1.3 2.25167 7
      vertex 1.73974 1.93218 7
      vertex 5.48127 2.44042 7
    endloop
  endfacet
  facet normal 0 0 1
    outer loop
      vertex -0.803444 2.47275 7
      vertex -5.86889 1.24747 7
      vertex -1.3 2.25167 7
    endloop
  endfacet
  facet normal 0 0 1
    outer loop
      vertex 4.01478 4.45887 7
      vertex -5.86889 1.24747 7
      vertex -0.803444 2.47275 7
    endloop
  endfacet
  facet normal 0 0 1
    outer loop
      vertex 4.01478 4.45887 7
      vertex -0.271774 2.58576 7
      vertex 4.8541 3.52671 7
    endloop
  endfacet
  facet normal 0 0 1
    outer loop
      vertex -0.271774 2.58576 7
      vertex 0.271774 2.58576 7
      vertex 4.8541 3.52671 7
    endloop
  endfacet
  facet normal 0 0 1
    outer loop
      vertex 4.8541 3.52671 7
      vertex 0.803444 2.47275 7
      vertex 5.48127 2.44042 7
    endloop
  endfacet
  facet normal 0 0 1
    outer loop
      vertex 0.803444 2.47275 7
      vertex 1.3 2.25167 7
      vertex 5.48127 2.44042 7
    endloop
  endfacet
  facet normal 0 0 1
    outer loop
      vertex 5.48127 2.44042 7
      vertex 1.73974 1.93218 7
      vertex 5.86889 1.24747 7
    endloop
  endfacet
  facet normal 0 0 1
    outer loop
      vertex 1.73974 1.93218 7
      vertex 2.10344 1.52824 7
      vertex 5.86889 1.24747 7
    endloop
  endfacet
  facet normal 0 0 1
    outer loop
      vertex 5.86889 1.24747 7
      vertex 2.37522 1.05751 7
      vertex 6 0 7
    endloop
  endfacet
  facet normal 0 0 1
    outer loop
      vertex 2.37522 1.05751 7
      vertex 2.54318 0.54057 7
      vertex 6 0 7
    endloop
  endfacet
  facet normal 0 0 1
    outer loop
      vertex 6 0 7
      vertex 2.6 0 7
      vertex 5.86889 -1.24747 7
    endloop
  endfacet
  facet normal 0 0 1
    outer loop
      vertex -2.37522 1.05751 7
      vertex -2.10344 1.52824 7
      vertex -5.86889 1.24747 7
    endloop
  endfacet
  facet normal 0 0 1
    outer loop
      vertex 2.6 0 7
      vertex 2.54318 -0.54057 7
      vertex 5.86889 -1.24747 7
    endloop
  endfacet
  facet normal 0 0 1
    outer loop
      vertex 0.271774 2.58576 7
      vertex 0.803444 2.47275 7
      vertex 4.8541 3.52671 7
    endloop
  endfacet
  facet normal 0 0 1
    outer loop
      vertex 5.86889 -1.24747 7
      vertex 2.37522 -1.05751 7
      vertex 5.48127 -2.44042 7
    endloop
  endfacet
  facet normal 0 0 1
    outer loop
      vertex 5.48127 -2.44042 7
      vertex 2.10344 -1.52824 7
      vertex 4.8541 -3.52671 7
    endloop
  endfacet
  facet normal 0 0 1
    outer loop
      vertex 2.10344 -1.52824 7
      vertex 1.73974 -1.93218 7
      vertex 4.8541 -3.52671 7
    endloop
  endfacet
  facet normal 0 0 1
    outer loop
      vertex 4.8541 -3.52671 7
      vertex 1.3 -2.25167 7
      vertex 4.01478 -4.45887 7
    endloop
  endfacet
  facet normal 0 0 1
    outer loop
      vertex 1.3 -2.25167 7
      vertex 0.803444 -2.47275 7
      vertex 4.01478 -4.45887 7
    endloop
  endfacet
  facet normal 0 0 1
    outer loop
      vertex 4.01478 -4.45887 7
      vertex 0.271774 -2.58576 7
      vertex 3 -5.19615 7
    endloop
  endfacet
  facet normal 0 0 1
    outer loop
      vertex -2.54318 -0.54057 7
      vertex -2.6 0 7
      vertex -5.86889 1.24747 7
    endloop
  endfacet
  facet normal 0 0 1
    outer loop
      vertex 0.271774 -2.58576 7
      vertex -0.271774 -2.58576 7
      vertex 3 -5.19615 7
    endloop
  endfacet
  facet normal 0 0 1
    outer loop
      vertex 3 -5.19615 7
      vertex -0.803444 -2.47275 7
      vertex 1.8541 -5.70634 7
    endloop
  endfacet
  facet normal 0 0 1
    outer loop
      vertex -0.803444 -2.47275 7
      vertex -1.3 -2.25167 7
      vertex 1.8541 -5.70634 7
    endloop
  endfacet
  facet normal 0 0 1
    outer loop
      vertex -1.3 -2.25167 7
      vertex -1.73974 -1.93218 7
      vertex 1.8541 -5.70634 7
    endloop
  endfacet
  facet normal 0 0 1
    outer loop
      vertex -2.37522 -1.05751 7
      vertex -2.54318 -0.54057 7
      vertex -5.86889 1.24747 7
    endloop
  endfacet
  facet normal 0 0 1
    outer loop
      vertex -2.54318 0.54057 7
      vertex -2.37522 1.05751 7
      vertex -5.86889 1.24747 7
    endloop
  endfacet
  facet normal -0.951057 -0.309017 0
    outer loop
      vertex -5.86889 -1.24747 0
      vertex -5.48127 -2.44042 0
      vertex -5.86889 -1.24747 7
    endloop
  endfacet
  facet normal -0.951057 -0.309017 0
    outer loop
      vertex -5.86889 -1.24747 7
      vertex -5.48127 -2.44042 0
      vertex -5.48127 -2.44042 7
    endloop
  endfacet
  facet normal -0.866025 -0.5 0
    outer loop
      vertex -5.48127 -2.44042 0
      vertex -5 -3.27401 0
      vertex -5.48127 -2.44042 7
    endloop
  endfacet
  facet normal -0.866025 -0.5 0
    outer loop
      vertex -5.48127 -2.44042 7
      vertex -5 -3.27401 0
      vertex -5 -3.27401 6
    endloop
  endfacet
  facet normal -0.866025 -0.5 0
    outer loop
      vertex -5.48127 -2.44042 7
      vertex -5 -3.27401 6
      vertex -4.8541 -3.52671 6
    endloop
  endfacet
  facet normal -0.866025 -0.5 0
    outer loop
      vertex -5.48127 -2.44042 7
      vertex -4.8541 -3.52671 6
      vertex -4.8541 -3.52671 7
    endloop
  endfacet
  facet normal -1 0 0
    outer loop
      vertex -5 -17.1832 2.81679
      vertex -5 -14.3664 5.63359
      vertex -5 -16.7639 2.35114
    endloop
  endfacet
  facet normal -1 0 0
    outer loop
      vertex -5 -3.27401 6
      vertex -5 -14.3664 5.63359
      vertex -5 -14.647 5.94516
    endloop
  endfacet
  facet normal -1 0 0
    outer loop
      vertex -5 -3.27401 6
      vertex -5 -14.647 5.94516
      vertex -5 -14.7224 6
    endloop
  endfacet
  facet normal -1 0 0
    outer loop
      vertex -5 -16.7639 2.35114
      vertex -5 -14.3664 5.63359
      vertex -5 -3.27401 6
    endloop
  endfacet
  facet normal -1 0 0
    outer loop
      vertex -5 -16.7639 2.35114
      vertex -5 -3.27401 6
      vertex -5 -3.27401 0
    endloop
  endfacet
  facet normal -1 0 0
    outer loop
      vertex -5 -16.0874 0.831647
      vertex -5 -3.27401 0
      vertex -5 -16 0
    endloop
  endfacet
  facet normal -1 0 0
    outer loop
      vertex -5 -16.3458 1.62695
      vertex -5 -3.27401 0
      vertex -5 -16.0874 0.831647
    endloop
  endfacet
  facet normal -1 0 0
    outer loop
      vertex -5 -16.7639 2.35114
      vertex -5 -3.27401 0
      vertex -5 -16.3458 1.62695
    endloop
  endfacet
  facet normal -1.97618e-016 -0.994522 -0.104529
    outer loop
      vertex -5 -16 0
      vertex 8.88178e-016 -16 0
      vertex 5 -16 1.11022e-015
    endloop
  endfacet
  facet normal -1.97618e-016 -0.994522 -0.104529
    outer loop
      vertex -5 -16.0874 0.831647
      vertex -5 -16 0
      vertex 5 -16.0874 0.831647
    endloop
  endfacet
  facet normal -1.97618e-016 -0.994522 -0.104529
    outer loop
      vertex 5 -16.0874 0.831647
      vertex -5 -16 0
      vertex 5 -16 1.11022e-015
    endloop
  endfacet
  facet normal -2.44038e-016 -0.994522 0.104529
    outer loop
      vertex 5 -16 0
      vertex 5 -16 1.11022e-015
      vertex 8.88178e-016 -16 0
    endloop
  endfacet
  facet normal 1 -2.22045e-016 2.22045e-016
    outer loop
      vertex 5 -16.0874 0.831647
      vertex 5 -16 1.11022e-015
      vertex 5 -14.3664 5.63359
    endloop
  endfacet
  facet normal 1 -2.22045e-016 2.22045e-016
    outer loop
      vertex 5 -14.3664 5.63359
      vertex 5 -17.1832 2.81679
      vertex 5 -16.7639 2.35114
    endloop
  endfacet
  facet normal 1 -2.22045e-016 2.22045e-016
    outer loop
      vertex 5 -16 1.11022e-015
      vertex 5 -16 0
      vertex 5 -14.3664 5.63359
    endloop
  endfacet
  facet normal 1 -2.22045e-016 2.22045e-016
    outer loop
      vertex 5 -16.3458 1.62695
      vertex 5 -14.3664 5.63359
      vertex 5 -16.7639 2.35114
    endloop
  endfacet
  facet normal 1 -2.22045e-016 2.22045e-016
    outer loop
      vertex 5 -16.3458 1.62695
      vertex 5 -16.0874 0.831647
      vertex 5 -14.3664 5.63359
    endloop
  endfacet
  facet normal 1 -2.22045e-016 2.22045e-016
    outer loop
      vertex 5 -16 0
      vertex 5 -12 0
      vertex 5 -14.3664 5.63359
    endloop
  endfacet
  facet normal 1 -2.22045e-016 2.22045e-016
    outer loop
      vertex 5 -12 0
      vertex 5 -12 1.11022e-015
      vertex 5 -14.3664 5.63359
    endloop
  endfacet
  facet normal 1 -2.22045e-016 2.22045e-016
    outer loop
      vertex 5 -12 1.11022e-015
      vertex 5 -12.1748 1.66329
      vertex 5 -14.3664 5.63359
    endloop
  endfacet
  facet normal 1 -2.22045e-016 2.22045e-016
    outer loop
      vertex 5 -12.1748 1.66329
      vertex 5 -12.6916 3.25389
      vertex 5 -14.3664 5.63359
    endloop
  endfacet
  facet normal 1 -2.22045e-016 2.22045e-016
    outer loop
      vertex 5 -12.6916 3.25389
      vertex 5 -13.5279 4.70228
      vertex 5 -14.3664 5.63359
    endloop
  endfacet
  facet normal 1 0 0
    outer loop
      vertex 5 -18 3.4641
      vertex 5 -17.3235 2.97258
      vertex 5 -20 6
    endloop
  endfacet
  facet normal 1 0 0
    outer loop
      vertex 5 -20 6
      vertex 5 -20 3.97809
      vertex 5 -19.5819 3.97809
    endloop
  endfacet
  facet normal 1 0 0
    outer loop
      vertex 5 -17.3235 2.97258
      vertex 5 -17.1832 2.81679
      vertex 5 -20 6
    endloop
  endfacet
  facet normal 1 0 0
    outer loop
      vertex 5 -18.7639 3.80423
      vertex 5 -20 6
      vertex 5 -19.5819 3.97809
    endloop
  endfacet
  facet normal 1 0 0
    outer loop
      vertex 5 -18.7639 3.80423
      vertex 5 -18 3.4641
      vertex 5 -20 6
    endloop
  endfacet
  facet normal 1 0 0
    outer loop
      vertex 5 -14.3664 5.63359
      vertex 5 -3.27401 6
      vertex 5 -20 6
    endloop
  endfacet
  facet normal 1 0 0
    outer loop
      vertex 5 -17.1832 2.81679
      vertex 5 -14.3664 5.63359
      vertex 5 -20 6
    endloop
  endfacet
  facet normal 1 0 0
    outer loop
      vertex 5 -13.5279 4.70228
      vertex 5 -3.27401 0
      vertex 5 -14.3664 5.63359
    endloop
  endfacet
  facet normal 1 0 0
    outer loop
      vertex 5 -12.6916 3.25389
      vertex 5 -3.27401 0
      vertex 5 -13.5279 4.70228
    endloop
  endfacet
  facet normal 1 0 0
    outer loop
      vertex 5 -12.1748 1.66329
      vertex 5 -3.27401 0
      vertex 5 -12.6916 3.25389
    endloop
  endfacet
  facet normal 1 0 0
    outer loop
      vertex 5 -12 1.11022e-015
      vertex 5 -3.27401 0
      vertex 5 -12.1748 1.66329
    endloop
  endfacet
  facet normal 1 0 0
    outer loop
      vertex 5 -12 0
      vertex 5 -3.27401 0
      vertex 5 -12 1.11022e-015
    endloop
  endfacet
  facet normal 1 0 0
    outer loop
      vertex 5 -3.27401 0
      vertex 5 -3.27401 6
      vertex 5 -14.3664 5.63359
    endloop
  endfacet
  facet normal 0.866025 -0.5 0
    outer loop
      vertex 4.8541 -3.52671 7
      vertex 4.8541 -3.52671 6
      vertex 5 -3.27401 6
    endloop
  endfacet
  facet normal 0.866025 -0.5 0
    outer loop
      vertex 5.48127 -2.44042 7
      vertex 4.8541 -3.52671 7
      vertex 5 -3.27401 6
    endloop
  endfacet
  facet normal 0.866025 -0.5 0
    outer loop
      vertex 5 -3.27401 0
      vertex 5.48127 -2.44042 0
      vertex 5 -3.27401 6
    endloop
  endfacet
  facet normal 0.866025 -0.5 0
    outer loop
      vertex 5.48127 -2.44042 0
      vertex 5.48127 -2.44042 7
      vertex 5 -3.27401 6
    endloop
  endfacet
  facet normal 0.951057 -0.309017 0
    outer loop
      vertex 5.48127 -2.44042 7
      vertex 5.48127 -2.44042 0
      vertex 5.86889 -1.24747 0
    endloop
  endfacet
  facet normal 0.951057 -0.309017 0
    outer loop
      vertex 5.86889 -1.24747 7
      vertex 5.48127 -2.44042 7
      vertex 5.86889 -1.24747 0
    endloop
  endfacet
  facet normal 0.994522 -0.104528 0
    outer loop
      vertex 5.86889 -1.24747 7
      vertex 5.86889 -1.24747 0
      vertex 6 0 0
    endloop
  endfacet
  facet normal 0.994522 -0.104528 0
    outer loop
      vertex 6 0 7
      vertex 5.86889 -1.24747 7
      vertex 6 0 0
    endloop
  endfacet
  facet normal 0.994522 0.104528 0
    outer loop
      vertex 6 0 0
      vertex 5.86889 1.24747 0
      vertex 5.86889 1.24747 7
    endloop
  endfacet
  facet normal 0.994522 0.104528 0
    outer loop
      vertex 6 0 7
      vertex 6 0 0
      vertex 5.86889 1.24747 7
    endloop
  endfacet
  facet normal 0.951057 0.309017 0
    outer loop
      vertex 5.86889 1.24747 0
      vertex 5.48127 2.44042 0
      vertex 5.48127 2.44042 7
    endloop
  endfacet
  facet normal 0.951057 0.309017 0
    outer loop
      vertex 5.86889 1.24747 7
      vertex 5.86889 1.24747 0
      vertex 5.48127 2.44042 7
    endloop
  endfacet
  facet normal 0.866025 0.5 0
    outer loop
      vertex 5.48127 2.44042 0
      vertex 4.8541 3.52671 0
      vertex 4.8541 3.52671 7
    endloop
  endfacet
  facet normal 0.866025 0.5 0
    outer loop
      vertex 5.48127 2.44042 7
      vertex 5.48127 2.44042 0
      vertex 4.8541 3.52671 7
    endloop
  endfacet
  facet normal 0.743145 0.669131 0
    outer loop
      vertex 4.8541 3.52671 0
      vertex 4.01478 4.45887 0
      vertex 4.01478 4.45887 7
    endloop
  endfacet
  facet normal 0.743145 0.669131 0
    outer loop
      vertex 4.8541 3.52671 7
      vertex 4.8541 3.52671 0
      vertex 4.01478 4.45887 7
    endloop
  endfacet
  facet normal 0.587785 0.809017 0
    outer loop
      vertex 3 5.19615 0
      vertex 3 5.19615 7
      vertex 4.01478 4.45887 0
    endloop
  endfacet
  facet normal 0.587785 0.809017 0
    outer loop
      vertex 4.01478 4.45887 0
      vertex 3 5.19615 7
      vertex 4.01478 4.45887 7
    endloop
  endfacet
  facet normal 0.406737 0.913545 0
    outer loop
      vertex 1.8541 5.70634 0
      vertex 1.8541 5.70634 7
      vertex 3 5.19615 0
    endloop
  endfacet
  facet normal 0.406737 0.913545 0
    outer loop
      vertex 3 5.19615 0
      vertex 1.8541 5.70634 7
      vertex 3 5.19615 7
    endloop
  endfacet
  facet normal 0.207912 0.978148 0
    outer loop
      vertex 0.627171 5.96713 0
      vertex 0.627171 5.96713 7
      vertex 1.8541 5.70634 0
    endloop
  endfacet
  facet normal 0.207912 0.978148 0
    outer loop
      vertex 1.8541 5.70634 0
      vertex 0.627171 5.96713 7
      vertex 1.8541 5.70634 7
    endloop
  endfacet
  facet normal 0 1 0
    outer loop
      vertex -0.627171 5.96713 0
      vertex -0.627171 5.96713 7
      vertex 0.627171 5.96713 0
    endloop
  endfacet
  facet normal 0 1 0
    outer loop
      vertex 0.627171 5.96713 0
      vertex -0.627171 5.96713 7
      vertex 0.627171 5.96713 7
    endloop
  endfacet
  facet normal -0.207912 0.978148 0
    outer loop
      vertex -1.8541 5.70634 0
      vertex -1.8541 5.70634 7
      vertex -0.627171 5.96713 0
    endloop
  endfacet
  facet normal -0.207912 0.978148 0
    outer loop
      vertex -0.627171 5.96713 0
      vertex -1.8541 5.70634 7
      vertex -0.627171 5.96713 7
    endloop
  endfacet
  facet normal -0.406737 0.913545 0
    outer loop
      vertex -3 5.19615 0
      vertex -3 5.19615 7
      vertex -1.8541 5.70634 0
    endloop
  endfacet
  facet normal -0.406737 0.913545 0
    outer loop
      vertex -1.8541 5.70634 0
      vertex -3 5.19615 7
      vertex -1.8541 5.70634 7
    endloop
  endfacet
  facet normal -0.587785 0.809017 0
    outer loop
      vertex -4.01478 4.45887 0
      vertex -4.01478 4.45887 7
      vertex -3 5.19615 0
    endloop
  endfacet
  facet normal -0.587785 0.809017 0
    outer loop
      vertex -3 5.19615 0
      vertex -4.01478 4.45887 7
      vertex -3 5.19615 7
    endloop
  endfacet
  facet normal -0.743145 0.669131 0
    outer loop
      vertex -4.8541 3.52671 0
      vertex -4.8541 3.52671 7
      vertex -4.01478 4.45887 0
    endloop
  endfacet
  facet normal -0.743145 0.669131 0
    outer loop
      vertex -4.01478 4.45887 0
      vertex -4.8541 3.52671 7
      vertex -4.01478 4.45887 7
    endloop
  endfacet
  facet normal -0.866025 0.5 0
    outer loop
      vertex -5.48127 2.44042 0
      vertex -5.48127 2.44042 7
      vertex -4.8541 3.52671 0
    endloop
  endfacet
  facet normal -0.866025 0.5 0
    outer loop
      vertex -4.8541 3.52671 0
      vertex -5.48127 2.44042 7
      vertex -4.8541 3.52671 7
    endloop
  endfacet
  facet normal 0.994522 0.104528 0
    outer loop
      vertex -2.6 0 7
      vertex -2.54318 -0.54057 7
      vertex -2.54318 -0.54057 0
    endloop
  endfacet
  facet normal 0.994522 0.104528 0
    outer loop
      vertex -2.6 0 0
      vertex -2.6 0 7
      vertex -2.54318 -0.54057 0
    endloop
  endfacet
  facet normal 0.994522 -0.104528 0
    outer loop
      vertex -2.54318 0.54057 0
      vertex -2.54318 0.54057 7
      vertex -2.6 0 7
    endloop
  endfacet
  facet normal 0.994522 -0.104528 0
    outer loop
      vertex -2.6 0 0
      vertex -2.54318 0.54057 0
      vertex -2.6 0 7
    endloop
  endfacet
  facet normal 0.951056 -0.309018 0
    outer loop
      vertex -2.37522 1.05751 0
      vertex -2.37522 1.05751 7
      vertex -2.54318 0.54057 7
    endloop
  endfacet
  facet normal 0.951056 -0.309018 0
    outer loop
      vertex -2.54318 0.54057 0
      vertex -2.37522 1.05751 0
      vertex -2.54318 0.54057 7
    endloop
  endfacet
  facet normal 0.866026 -0.5 0
    outer loop
      vertex -2.10344 1.52824 0
      vertex -2.10344 1.52824 7
      vertex -2.37522 1.05751 7
    endloop
  endfacet
  facet normal 0.866026 -0.5 0
    outer loop
      vertex -2.37522 1.05751 0
      vertex -2.10344 1.52824 0
      vertex -2.37522 1.05751 7
    endloop
  endfacet
  facet normal 0.743145 -0.66913 0
    outer loop
      vertex -1.73974 1.93218 0
      vertex -1.73974 1.93218 7
      vertex -2.10344 1.52824 7
    endloop
  endfacet
  facet normal 0.743145 -0.66913 0
    outer loop
      vertex -2.10344 1.52824 0
      vertex -1.73974 1.93218 0
      vertex -2.10344 1.52824 7
    endloop
  endfacet
  facet normal 0.587784 -0.809018 0
    outer loop
      vertex -1.3 2.25167 0
      vertex -1.3 2.25167 7
      vertex -1.73974 1.93218 7
    endloop
  endfacet
  facet normal 0.587784 -0.809018 0
    outer loop
      vertex -1.73974 1.93218 0
      vertex -1.3 2.25167 0
      vertex -1.73974 1.93218 7
    endloop
  endfacet
  facet normal 0.406737 -0.913545 0
    outer loop
      vertex -0.803444 2.47275 0
      vertex -0.803444 2.47275 7
      vertex -1.3 2.25167 7
    endloop
  endfacet
  facet normal 0.406737 -0.913545 0
    outer loop
      vertex -1.3 2.25167 0
      vertex -0.803444 2.47275 0
      vertex -1.3 2.25167 7
    endloop
  endfacet
  facet normal 0.207912 -0.978148 0
    outer loop
      vertex -0.271774 2.58576 0
      vertex -0.271774 2.58576 7
      vertex -0.803444 2.47275 7
    endloop
  endfacet
  facet normal 0.207912 -0.978148 0
    outer loop
      vertex -0.803444 2.47275 0
      vertex -0.271774 2.58576 0
      vertex -0.803444 2.47275 7
    endloop
  endfacet
  facet normal 0 -1 0
    outer loop
      vertex 0.271774 2.58576 0
      vertex 0.271774 2.58576 7
      vertex -0.271774 2.58576 7
    endloop
  endfacet
  facet normal 0 -1 0
    outer loop
      vertex -0.271774 2.58576 0
      vertex 0.271774 2.58576 0
      vertex -0.271774 2.58576 7
    endloop
  endfacet
  facet normal -0.207912 -0.978148 0
    outer loop
      vertex 0.803444 2.47275 0
      vertex 0.803444 2.47275 7
      vertex 0.271774 2.58576 7
    endloop
  endfacet
  facet normal -0.207912 -0.978148 0
    outer loop
      vertex 0.271774 2.58576 0
      vertex 0.803444 2.47275 0
      vertex 0.271774 2.58576 7
    endloop
  endfacet
  facet normal -0.406737 -0.913545 0
    outer loop
      vertex 1.3 2.25167 0
      vertex 1.3 2.25167 7
      vertex 0.803444 2.47275 7
    endloop
  endfacet
  facet normal -0.406737 -0.913545 0
    outer loop
      vertex 0.803444 2.47275 0
      vertex 1.3 2.25167 0
      vertex 0.803444 2.47275 7
    endloop
  endfacet
  facet normal -0.587784 -0.809018 0
    outer loop
      vertex 1.73974 1.93218 0
      vertex 1.73974 1.93218 7
      vertex 1.3 2.25167 7
    endloop
  endfacet
  facet normal -0.587784 -0.809018 0
    outer loop
      vertex 1.3 2.25167 0
      vertex 1.73974 1.93218 0
      vertex 1.3 2.25167 7
    endloop
  endfacet
  facet normal -0.743145 -0.66913 0
    outer loop
      vertex 2.10344 1.52824 7
      vertex 1.73974 1.93218 7
      vertex 2.10344 1.52824 0
    endloop
  endfacet
  facet normal -0.743145 -0.66913 0
    outer loop
      vertex 2.10344 1.52824 0
      vertex 1.73974 1.93218 7
      vertex 1.73974 1.93218 0
    endloop
  endfacet
  facet normal -0.866026 -0.5 0
    outer loop
      vertex 2.37522 1.05751 7
      vertex 2.10344 1.52824 7
      vertex 2.37522 1.05751 0
    endloop
  endfacet
  facet normal -0.866026 -0.5 0
    outer loop
      vertex 2.37522 1.05751 0
      vertex 2.10344 1.52824 7
      vertex 2.10344 1.52824 0
    endloop
  endfacet
  facet normal -0.951056 -0.309018 0
    outer loop
      vertex 2.54318 0.54057 7
      vertex 2.37522 1.05751 7
      vertex 2.54318 0.54057 0
    endloop
  endfacet
  facet normal -0.951056 -0.309018 0
    outer loop
      vertex 2.54318 0.54057 0
      vertex 2.37522 1.05751 7
      vertex 2.37522 1.05751 0
    endloop
  endfacet
  facet normal -0.994522 -0.104528 0
    outer loop
      vertex 2.6 0 7
      vertex 2.54318 0.54057 7
      vertex 2.6 0 0
    endloop
  endfacet
  facet normal -0.994522 -0.104528 0
    outer loop
      vertex 2.6 0 0
      vertex 2.54318 0.54057 7
      vertex 2.54318 0.54057 0
    endloop
  endfacet
  facet normal -0.994522 0.104528 0
    outer loop
      vertex 2.6 0 7
      vertex 2.6 0 0
      vertex 2.54318 -0.54057 7
    endloop
  endfacet
  facet normal -0.994522 0.104528 0
    outer loop
      vertex 2.54318 -0.54057 7
      vertex 2.6 0 0
      vertex 2.54318 -0.54057 0
    endloop
  endfacet
  facet normal -0.951056 0.309018 0
    outer loop
      vertex 2.54318 -0.54057 7
      vertex 2.54318 -0.54057 0
      vertex 2.37522 -1.05751 7
    endloop
  endfacet
  facet normal -0.951056 0.309018 0
    outer loop
      vertex 2.37522 -1.05751 7
      vertex 2.54318 -0.54057 0
      vertex 2.37522 -1.05751 0
    endloop
  endfacet
  facet normal -0.866026 0.5 0
    outer loop
      vertex 2.37522 -1.05751 7
      vertex 2.37522 -1.05751 0
      vertex 2.10344 -1.52824 7
    endloop
  endfacet
  facet normal -0.866026 0.5 0
    outer loop
      vertex 2.10344 -1.52824 7
      vertex 2.37522 -1.05751 0
      vertex 2.10344 -1.52824 0
    endloop
  endfacet
  facet normal -0.743145 0.66913 0
    outer loop
      vertex 2.10344 -1.52824 7
      vertex 2.10344 -1.52824 0
      vertex 1.73974 -1.93218 7
    endloop
  endfacet
  facet normal -0.743145 0.66913 0
    outer loop
      vertex 1.73974 -1.93218 7
      vertex 2.10344 -1.52824 0
      vertex 1.73974 -1.93218 0
    endloop
  endfacet
  facet normal -0.587784 0.809018 0
    outer loop
      vertex 1.73974 -1.93218 7
      vertex 1.73974 -1.93218 0
      vertex 1.3 -2.25167 7
    endloop
  endfacet
  facet normal -0.587784 0.809018 0
    outer loop
      vertex 1.3 -2.25167 7
      vertex 1.73974 -1.93218 0
      vertex 1.3 -2.25167 0
    endloop
  endfacet
  facet normal -0.406737 0.913545 0
    outer loop
      vertex 1.3 -2.25167 7
      vertex 1.3 -2.25167 0
      vertex 0.803444 -2.47275 7
    endloop
  endfacet
  facet normal -0.406737 0.913545 0
    outer loop
      vertex 0.803444 -2.47275 7
      vertex 1.3 -2.25167 0
      vertex 0.803444 -2.47275 0
    endloop
  endfacet
  facet normal -0.207912 0.978148 0
    outer loop
      vertex 0.803444 -2.47275 7
      vertex 0.803444 -2.47275 0
      vertex 0.271774 -2.58576 7
    endloop
  endfacet
  facet normal -0.207912 0.978148 0
    outer loop
      vertex 0.271774 -2.58576 7
      vertex 0.803444 -2.47275 0
      vertex 0.271774 -2.58576 0
    endloop
  endfacet
  facet normal 0 1 0
    outer loop
      vertex 0.271774 -2.58576 7
      vertex 0.271774 -2.58576 0
      vertex -0.271774 -2.58576 7
    endloop
  endfacet
  facet normal 0 1 0
    outer loop
      vertex -0.271774 -2.58576 7
      vertex 0.271774 -2.58576 0
      vertex -0.271774 -2.58576 0
    endloop
  endfacet
  facet normal 0.207912 0.978148 0
    outer loop
      vertex -0.271774 -2.58576 7
      vertex -0.271774 -2.58576 0
      vertex -0.803444 -2.47275 7
    endloop
  endfacet
  facet normal 0.207912 0.978148 0
    outer loop
      vertex -0.803444 -2.47275 7
      vertex -0.271774 -2.58576 0
      vertex -0.803444 -2.47275 0
    endloop
  endfacet
  facet normal 0.406737 0.913545 0
    outer loop
      vertex -0.803444 -2.47275 7
      vertex -0.803444 -2.47275 0
      vertex -1.3 -2.25167 7
    endloop
  endfacet
  facet normal 0.406737 0.913545 0
    outer loop
      vertex -1.3 -2.25167 7
      vertex -0.803444 -2.47275 0
      vertex -1.3 -2.25167 0
    endloop
  endfacet
  facet normal 0.587784 0.809018 0
    outer loop
      vertex -1.3 -2.25167 7
      vertex -1.3 -2.25167 0
      vertex -1.73974 -1.93218 7
    endloop
  endfacet
  facet normal 0.587784 0.809018 0
    outer loop
      vertex -1.73974 -1.93218 7
      vertex -1.3 -2.25167 0
      vertex -1.73974 -1.93218 0
    endloop
  endfacet
  facet normal 0.743145 0.66913 0
    outer loop
      vertex -2.10344 -1.52824 7
      vertex -1.73974 -1.93218 7
      vertex -1.73974 -1.93218 0
    endloop
  endfacet
  facet normal 0.743145 0.66913 0
    outer loop
      vertex -2.10344 -1.52824 0
      vertex -2.10344 -1.52824 7
      vertex -1.73974 -1.93218 0
    endloop
  endfacet
  facet normal 0.866026 0.5 0
    outer loop
      vertex -2.37522 -1.05751 7
      vertex -2.10344 -1.52824 7
      vertex -2.10344 -1.52824 0
    endloop
  endfacet
  facet normal 0.866026 0.5 0
    outer loop
      vertex -2.37522 -1.05751 0
      vertex -2.37522 -1.05751 7
      vertex -2.10344 -1.52824 0
    endloop
  endfacet
  facet normal 0.951056 0.309018 0
    outer loop
      vertex -2.54318 -0.54057 7
      vertex -2.37522 -1.05751 7
      vertex -2.37522 -1.05751 0
    endloop
  endfacet
  facet normal 0.951056 0.309018 0
    outer loop
      vertex -2.54318 -0.54057 0
      vertex -2.54318 -0.54057 7
      vertex -2.37522 -1.05751 0
    endloop
  endfacet
  facet normal 1 0 2.22045e-016
    outer loop
      vertex -1.75 -22.4721 7.60845
      vertex -1.75 -24 6.9282
      vertex -1.75 -25.353 5.94516
    endloop
  endfacet
  facet normal 1 0 2.22045e-016
    outer loop
      vertex -1.75 -27.3084 3.25389
      vertex -1.75 -22.4721 7.60845
      vertex -1.75 -26.4721 4.70228
    endloop
  endfacet
  facet normal 1 0 2.22045e-016
    outer loop
      vertex -1.75 -26.4721 4.70228
      vertex -1.75 -22.4721 7.60845
      vertex -1.75 -25.353 5.94516
    endloop
  endfacet
  facet normal 1 0 2.22045e-016
    outer loop
      vertex -1.75 -25.202 4.68391
      vertex -1.75 -22.4721 7.60845
      vertex -1.75 -27.3084 3.25389
    endloop
  endfacet
  facet normal 1 0 2.22045e-016
    outer loop
      vertex -1.75 -25.202 4.68391
      vertex -1.75 -24.1145 5.66312
      vertex -1.75 -22.4721 7.60845
    endloop
  endfacet
  facet normal 1 0 2.22045e-016
    outer loop
      vertex -1.75 -26.0622 3.5
      vertex -1.75 -25.202 4.68391
      vertex -1.75 -27.8252 1.66329
    endloop
  endfacet
  facet normal 1 0 2.22045e-016
    outer loop
      vertex -1.75 -26.9617 0
      vertex -1.75 -26.9617 0.731699
      vertex -1.75 -28 0
    endloop
  endfacet
  facet normal 1 0 2.22045e-016
    outer loop
      vertex -1.75 -18.5446 6.84703
      vertex -1.75 -16 6.9282
      vertex -1.75 -22.4721 7.60845
    endloop
  endfacet
  facet normal 1 0 2.22045e-016
    outer loop
      vertex -1.75 -28 0
      vertex -1.75 -26.6574 2.16312
      vertex -1.75 -27.8252 1.66329
    endloop
  endfacet
  facet normal 1 0 2.22045e-016
    outer loop
      vertex -1.75 -26.6574 2.16312
      vertex -1.75 -26.0622 3.5
      vertex -1.75 -27.8252 1.66329
    endloop
  endfacet
  facet normal 1 0 2.22045e-016
    outer loop
      vertex -1.75 -27.8252 1.66329
      vertex -1.75 -25.202 4.68391
      vertex -1.75 -27.3084 3.25389
    endloop
  endfacet
  facet normal 1 0 2.22045e-016
    outer loop
      vertex -1.75 -21.4554 6.84703
      vertex -1.75 -22.4721 7.60845
      vertex -1.75 -22.8472 6.39482
    endloop
  endfacet
  facet normal 1 0 2.22045e-016
    outer loop
      vertex -1.75 -20 7
      vertex -1.75 -22.4721 7.60845
      vertex -1.75 -21.4554 6.84703
    endloop
  endfacet
  facet normal 1 0 2.22045e-016
    outer loop
      vertex -1.75 -18.5446 6.84703
      vertex -1.75 -22.4721 7.60845
      vertex -1.75 -20 7
    endloop
  endfacet
  facet normal 1 0 2.22045e-016
    outer loop
      vertex -1.75 -13.6833 5.68761
      vertex -1.75 -18.5446 6.84703
      vertex -1.75 -17.1528 6.39482
    endloop
  endfacet
  facet normal 1 0 2.22045e-016
    outer loop
      vertex -1.75 -12.6388 4.25
      vertex -1.75 -17.1528 6.39482
      vertex -1.75 -15.8855 5.66312
    endloop
  endfacet
  facet normal 1 0 2.22045e-016
    outer loop
      vertex -1.75 -11.916 2.62664
      vertex -1.75 -15.8855 5.66312
      vertex -1.75 -14.798 4.68391
    endloop
  endfacet
  facet normal 1 0 2.22045e-016
    outer loop
      vertex -1.75 -11.5466 0.888492
      vertex -1.75 -14.798 4.68391
      vertex -1.75 -13.9378 3.5
    endloop
  endfacet
  facet normal 1 0 2.22045e-016
    outer loop
      vertex -1.75 -11.5466 0
      vertex -1.75 -13.9378 3.5
      vertex -1.75 -13.3426 2.16312
    endloop
  endfacet
  facet normal 1 0 2.22045e-016
    outer loop
      vertex -1.75 -11.5466 0
      vertex -1.75 -13.3426 2.16312
      vertex -1.75 -13.0383 0.731699
    endloop
  endfacet
  facet normal 1 0 2.22045e-016
    outer loop
      vertex -1.75 -11.5466 0
      vertex -1.75 -13.0383 0.731699
      vertex -1.75 -13.0383 0
    endloop
  endfacet
  facet normal 1 0 2.22045e-016
    outer loop
      vertex -1.75 -11.5466 0.888492
      vertex -1.75 -13.9378 3.5
      vertex -1.75 -11.5466 0
    endloop
  endfacet
  facet normal 1 0 2.22045e-016
    outer loop
      vertex -1.75 -11.916 2.62664
      vertex -1.75 -14.798 4.68391
      vertex -1.75 -11.5466 0.888492
    endloop
  endfacet
  facet normal 1 0 2.22045e-016
    outer loop
      vertex -1.75 -12.6388 4.25
      vertex -1.75 -15.8855 5.66312
      vertex -1.75 -11.916 2.62664
    endloop
  endfacet
  facet normal 1 0 2.22045e-016
    outer loop
      vertex -1.75 -13.6833 5.68761
      vertex -1.75 -17.1528 6.39482
      vertex -1.75 -12.6388 4.25
    endloop
  endfacet
  facet normal 1 0 2.22045e-016
    outer loop
      vertex -1.75 -14.7224 6
      vertex -1.75 -18.5446 6.84703
      vertex -1.75 -13.6833 5.68761
    endloop
  endfacet
  facet normal 1 0 2.22045e-016
    outer loop
      vertex -1.75 -14.0302 6
      vertex -1.75 -14.7224 6
      vertex -1.75 -13.6833 5.68761
    endloop
  endfacet
  facet normal 1 0 2.22045e-016
    outer loop
      vertex -1.75 -17.5279 7.60845
      vertex -1.75 -22.4721 7.60845
      vertex -1.75 -16 6.9282
    endloop
  endfacet
  facet normal 1 0 2.22045e-016
    outer loop
      vertex -1.75 -19.1638 7.95617
      vertex -1.75 -22.4721 7.60845
      vertex -1.75 -17.5279 7.60845
    endloop
  endfacet
  facet normal 1 0 2.22045e-016
    outer loop
      vertex -1.75 -20.8362 7.95617
      vertex -1.75 -22.4721 7.60845
      vertex -1.75 -19.1638 7.95617
    endloop
  endfacet
  facet normal 1 0 2.22045e-016
    outer loop
      vertex -1.75 -14.7224 6
      vertex -1.75 -16 6.9282
      vertex -1.75 -18.5446 6.84703
    endloop
  endfacet
  facet normal 1 0 2.22045e-016
    outer loop
      vertex -1.75 -26.9617 0.731699
      vertex -1.75 -26.6574 2.16312
      vertex -1.75 -28 0
    endloop
  endfacet
  facet normal 1 0 2.22045e-016
    outer loop
      vertex -1.75 -24.1145 5.66312
      vertex -1.75 -22.8472 6.39482
      vertex -1.75 -22.4721 7.60845
    endloop
  endfacet
  facet normal 0 -1 0
    outer loop
      vertex -1.75 -11.5466 0
      vertex 1.75 -11.5466 0
      vertex 1.75 -11.5466 0.888492
    endloop
  endfacet
  facet normal 0 -1 0
    outer loop
      vertex -1.75 -11.5466 0.888492
      vertex -1.75 -11.5466 0
      vertex 1.75 -11.5466 0.888492
    endloop
  endfacet
  facet normal -1 0 -2.22045e-016
    outer loop
      vertex 1.75 -17.5279 7.60845
      vertex 1.75 -16 6.9282
      vertex 1.75 -19.1638 7.95617
    endloop
  endfacet
  facet normal -1 0 -2.22045e-016
    outer loop
      vertex 1.75 -19.1638 7.95617
      vertex 1.75 -16 6.9282
      vertex 1.75 -14.7224 6
    endloop
  endfacet
  facet normal -1 0 -2.22045e-016
    outer loop
      vertex 1.75 -14.7224 6
      vertex 1.75 -14.0302 6
      vertex 1.75 -13.6833 5.68761
    endloop
  endfacet
  facet normal -1 0 -2.22045e-016
    outer loop
      vertex 1.75 -14.7224 6
      vertex 1.75 -13.6833 5.68761
      vertex 1.75 -12.6388 4.25
    endloop
  endfacet
  facet normal -1 0 -2.22045e-016
    outer loop
      vertex 1.75 -14.7224 6
      vertex 1.75 -12.6388 4.25
      vertex 1.75 -19.1638 7.95617
    endloop
  endfacet
  facet normal -1 0 -2.22045e-016
    outer loop
      vertex 1.75 -15.8855 5.66312
      vertex 1.75 -12.6388 4.25
      vertex 1.75 -11.916 2.62664
    endloop
  endfacet
  facet normal -1 0 -2.22045e-016
    outer loop
      vertex 1.75 -13.9378 3.5
      vertex 1.75 -11.916 2.62664
      vertex 1.75 -11.5466 0.888492
    endloop
  endfacet
  facet normal -1 0 -2.22045e-016
    outer loop
      vertex 1.75 -13.3426 2.16312
      vertex 1.75 -11.5466 0.888492
      vertex 1.75 -11.5466 0
    endloop
  endfacet
  facet normal -1 0 -2.22045e-016
    outer loop
      vertex 1.75 -13.0383 0.731699
      vertex 1.75 -11.5466 0
      vertex 1.75 -13.0383 0
    endloop
  endfacet
  facet normal -1 0 -2.22045e-016
    outer loop
      vertex 1.75 -13.9378 3.5
      vertex 1.75 -11.5466 0.888492
      vertex 1.75 -13.3426 2.16312
    endloop
  endfacet
  facet normal -1 0 -2.22045e-016
    outer loop
      vertex 1.75 -14.798 4.68391
      vertex 1.75 -11.916 2.62664
      vertex 1.75 -13.9378 3.5
    endloop
  endfacet
  facet normal -1 0 -2.22045e-016
    outer loop
      vertex 1.75 -15.8855 5.66312
      vertex 1.75 -11.916 2.62664
      vertex 1.75 -14.798 4.68391
    endloop
  endfacet
  facet normal -1 0 -2.22045e-016
    outer loop
      vertex 1.75 -19.1638 7.95617
      vertex 1.75 -12.6388 4.25
      vertex 1.75 -15.8855 5.66312
    endloop
  endfacet
  facet normal -1 0 -2.22045e-016
    outer loop
      vertex 1.75 -17.1528 6.39482
      vertex 1.75 -19.1638 7.95617
      vertex 1.75 -15.8855 5.66312
    endloop
  endfacet
  facet normal -1 0 -2.22045e-016
    outer loop
      vertex 1.75 -18.5446 6.84703
      vertex 1.75 -19.1638 7.95617
      vertex 1.75 -17.1528 6.39482
    endloop
  endfacet
  facet normal -1 0 -2.22045e-016
    outer loop
      vertex 1.75 -19.1638 7.95617
      vertex 1.75 -18.5446 6.84703
      vertex 1.75 -20 7
    endloop
  endfacet
  facet normal -1 0 -2.22045e-016
    outer loop
      vertex 1.75 -20 7
      vertex 1.75 -21.4554 6.84703
      vertex 1.75 -19.1638 7.95617
    endloop
  endfacet
  facet normal -1 0 -2.22045e-016
    outer loop
      vertex 1.75 -21.4554 6.84703
      vertex 1.75 -22.8472 6.39482
      vertex 1.75 -19.1638 7.95617
    endloop
  endfacet
  facet normal -1 0 -2.22045e-016
    outer loop
      vertex 1.75 -26.6574 2.16312
      vertex 1.75 -28 0
      vertex 1.75 -26.0622 3.5
    endloop
  endfacet
  facet normal -1 0 -2.22045e-016
    outer loop
      vertex 1.75 -26.9617 0.731699
      vertex 1.75 -26.9617 0
      vertex 1.75 -28 0
    endloop
  endfacet
  facet normal -1 0 -2.22045e-016
    outer loop
      vertex 1.75 -26.9617 0.731699
      vertex 1.75 -28 0
      vertex 1.75 -26.6574 2.16312
    endloop
  endfacet
  facet normal -1 0 -2.22045e-016
    outer loop
      vertex 1.75 -26.0622 3.5
      vertex 1.75 -28 0
      vertex 1.75 -28 3.88578e-016
    endloop
  endfacet
  facet normal -1 0 -2.22045e-016
    outer loop
      vertex 1.75 -26.0622 3.5
      vertex 1.75 -28 3.88578e-016
      vertex 1.75 -27.8252 1.66329
    endloop
  endfacet
  facet normal -1 0 -2.22045e-016
    outer loop
      vertex 1.75 -26.0622 3.5
      vertex 1.75 -27.8252 1.66329
      vertex 1.75 -25.202 4.68391
    endloop
  endfacet
  facet normal -1 0 -2.22045e-016
    outer loop
      vertex 1.75 -25.202 4.68391
      vertex 1.75 -27.8252 1.66329
      vertex 1.75 -27.3084 3.25389
    endloop
  endfacet
  facet normal -1 0 -2.22045e-016
    outer loop
      vertex 1.75 -25.202 4.68391
      vertex 1.75 -27.3084 3.25389
      vertex 1.75 -24.1145 5.66312
    endloop
  endfacet
  facet normal -1 0 -2.22045e-016
    outer loop
      vertex 1.75 -24.1145 5.66312
      vertex 1.75 -27.3084 3.25389
      vertex 1.75 -26.4721 4.70228
    endloop
  endfacet
  facet normal -1 0 -2.22045e-016
    outer loop
      vertex 1.75 -24.1145 5.66312
      vertex 1.75 -26.4721 4.70228
      vertex 1.75 -22.8472 6.39482
    endloop
  endfacet
  facet normal -1 0 -2.22045e-016
    outer loop
      vertex 1.75 -22.8472 6.39482
      vertex 1.75 -26.4721 4.70228
      vertex 1.75 -25.353 5.94516
    endloop
  endfacet
  facet normal -1 0 -2.22045e-016
    outer loop
      vertex 1.75 -22.8472 6.39482
      vertex 1.75 -25.353 5.94516
      vertex 1.75 -19.1638 7.95617
    endloop
  endfacet
  facet normal -1 0 -2.22045e-016
    outer loop
      vertex 1.75 -19.1638 7.95617
      vertex 1.75 -25.353 5.94516
      vertex 1.75 -24 6.9282
    endloop
  endfacet
  facet normal -1 0 -2.22045e-016
    outer loop
      vertex 1.75 -19.1638 7.95617
      vertex 1.75 -24 6.9282
      vertex 1.75 -22.4721 7.60845
    endloop
  endfacet
  facet normal -1 0 -2.22045e-016
    outer loop
      vertex 1.75 -19.1638 7.95617
      vertex 1.75 -22.4721 7.60845
      vertex 1.75 -20.8362 7.95617
    endloop
  endfacet
  facet normal -1 0 -2.22045e-016
    outer loop
      vertex 1.75 -13.3426 2.16312
      vertex 1.75 -11.5466 0
      vertex 1.75 -13.0383 0.731699
    endloop
  endfacet
  facet normal 0 1 0
    outer loop
      vertex -1.75 -13.0383 0.731699
      vertex 1.75 -13.0383 0.731699
      vertex -1.75 -13.0383 0
    endloop
  endfacet
  facet normal 0 1 0
    outer loop
      vertex -1.75 -13.0383 0
      vertex 1.75 -13.0383 0.731699
      vertex 1.75 -13.0383 0
    endloop
  endfacet
  facet normal 0.743145 -0.669131 0
    outer loop
      vertex 4.01478 -4.45887 7
      vertex 4.01478 -4.45887 6
      vertex 4.8541 -3.52671 6
    endloop
  endfacet
  facet normal 0.743145 -0.669131 0
    outer loop
      vertex 4.8541 -3.52671 7
      vertex 4.01478 -4.45887 7
      vertex 4.8541 -3.52671 6
    endloop
  endfacet
  facet normal 0.587785 -0.809017 0
    outer loop
      vertex 3 -5.19615 7
      vertex 3 -5.19615 6
      vertex 4.01478 -4.45887 6
    endloop
  endfacet
  facet normal 0.587785 -0.809017 0
    outer loop
      vertex 4.01478 -4.45887 7
      vertex 3 -5.19615 7
      vertex 4.01478 -4.45887 6
    endloop
  endfacet
  facet normal 0.406737 -0.913545 0
    outer loop
      vertex 1.8541 -5.70634 7
      vertex 1.8541 -5.70634 6
      vertex 3 -5.19615 6
    endloop
  endfacet
  facet normal 0.406737 -0.913545 0
    outer loop
      vertex 3 -5.19615 7
      vertex 1.8541 -5.70634 7
      vertex 3 -5.19615 6
    endloop
  endfacet
  facet normal 0.207912 -0.978148 0
    outer loop
      vertex 0.627171 -5.96713 7
      vertex 0.627171 -5.96713 6
      vertex 1.8541 -5.70634 6
    endloop
  endfacet
  facet normal 0.207912 -0.978148 0
    outer loop
      vertex 1.8541 -5.70634 7
      vertex 0.627171 -5.96713 7
      vertex 1.8541 -5.70634 6
    endloop
  endfacet
  facet normal 0 -1 0
    outer loop
      vertex -0.627171 -5.96713 7
      vertex -0.627171 -5.96713 6
      vertex 0.627171 -5.96713 6
    endloop
  endfacet
  facet normal 0 -1 0
    outer loop
      vertex 0.627171 -5.96713 7
      vertex -0.627171 -5.96713 7
      vertex 0.627171 -5.96713 6
    endloop
  endfacet
  facet normal -0.207912 -0.978148 0
    outer loop
      vertex -1.8541 -5.70634 7
      vertex -1.8541 -5.70634 6
      vertex -0.627171 -5.96713 6
    endloop
  endfacet
  facet normal -0.207912 -0.978148 0
    outer loop
      vertex -0.627171 -5.96713 7
      vertex -1.8541 -5.70634 7
      vertex -0.627171 -5.96713 6
    endloop
  endfacet
  facet normal -0.406737 -0.913545 0
    outer loop
      vertex -3 -5.19615 7
      vertex -3 -5.19615 6
      vertex -1.8541 -5.70634 6
    endloop
  endfacet
  facet normal -0.406737 -0.913545 0
    outer loop
      vertex -1.8541 -5.70634 7
      vertex -3 -5.19615 7
      vertex -1.8541 -5.70634 6
    endloop
  endfacet
  facet normal -0.587785 -0.809017 0
    outer loop
      vertex -4.01478 -4.45887 7
      vertex -4.01478 -4.45887 6
      vertex -3 -5.19615 6
    endloop
  endfacet
  facet normal -0.587785 -0.809017 0
    outer loop
      vertex -3 -5.19615 7
      vertex -4.01478 -4.45887 7
      vertex -3 -5.19615 6
    endloop
  endfacet
  facet normal -0.743145 -0.669131 0
    outer loop
      vertex -4.8541 -3.52671 6
      vertex -4.01478 -4.45887 6
      vertex -4.8541 -3.52671 7
    endloop
  endfacet
  facet normal -0.743145 -0.669131 0
    outer loop
      vertex -4.8541 -3.52671 7
      vertex -4.01478 -4.45887 6
      vertex -4.01478 -4.45887 7
    endloop
  endfacet
  facet normal 0 0 1
    outer loop
      vertex -5 -3.27401 6
      vertex -5 -14.7224 6
      vertex -1.75 -14.7224 6
    endloop
  endfacet
  facet normal 0 0 1
    outer loop
      vertex -4.8541 -3.52671 6
      vertex -5 -3.27401 6
      vertex -1.75 -14.0302 6
    endloop
  endfacet
  facet normal 0 0 1
    outer loop
      vertex -1.75 -14.0302 6
      vertex -5 -3.27401 6
      vertex -1.75 -14.7224 6
    endloop
  endfacet
  facet normal 0 0 1
    outer loop
      vertex 5 -14.7224 6
      vertex 1.75 -14.0302 6
      vertex 1.75 -14.7224 6
    endloop
  endfacet
  facet normal 0 0 1
    outer loop
      vertex -4.01478 -4.45887 6
      vertex -4.8541 -3.52671 6
      vertex 1.75 -14.0302 6
    endloop
  endfacet
  facet normal 0 0 1
    outer loop
      vertex 5 -3.27401 6
      vertex 5 -14.7224 6
      vertex 5 -20 6
    endloop
  endfacet
  facet normal 0 0 1
    outer loop
      vertex 5 -3.27401 6
      vertex 4.8541 -3.52671 6
      vertex 5 -14.7224 6
    endloop
  endfacet
  facet normal 0 0 1
    outer loop
      vertex 4.8541 -3.52671 6
      vertex 4.01478 -4.45887 6
      vertex 5 -14.7224 6
    endloop
  endfacet
  facet normal 0 0 1
    outer loop
      vertex 4.01478 -4.45887 6
      vertex 3 -5.19615 6
      vertex 5 -14.7224 6
    endloop
  endfacet
  facet normal 0 0 1
    outer loop
      vertex 3 -5.19615 6
      vertex 1.8541 -5.70634 6
      vertex 5 -14.7224 6
    endloop
  endfacet
  facet normal 0 0 1
    outer loop
      vertex 1.8541 -5.70634 6
      vertex 0.627171 -5.96713 6
      vertex 5 -14.7224 6
    endloop
  endfacet
  facet normal 0 0 1
    outer loop
      vertex 0.627171 -5.96713 6
      vertex -0.627171 -5.96713 6
      vertex 5 -14.7224 6
    endloop
  endfacet
  facet normal 0 0 1
    outer loop
      vertex -0.627171 -5.96713 6
      vertex -1.8541 -5.70634 6
      vertex 5 -14.7224 6
    endloop
  endfacet
  facet normal 0 0 1
    outer loop
      vertex -1.8541 -5.70634 6
      vertex -3 -5.19615 6
      vertex 5 -14.7224 6
    endloop
  endfacet
  facet normal 0 0 1
    outer loop
      vertex 5 -14.7224 6
      vertex -4.01478 -4.45887 6
      vertex 1.75 -14.0302 6
    endloop
  endfacet
  facet normal 0 0 1
    outer loop
      vertex 1.75 -14.0302 6
      vertex -4.8541 -3.52671 6
      vertex -1.75 -14.0302 6
    endloop
  endfacet
  facet normal 0 0 1
    outer loop
      vertex -3 -5.19615 6
      vertex -4.01478 -4.45887 6
      vertex 5 -14.7224 6
    endloop
  endfacet
  facet normal -8.12738e-017 -0.866025 -0.5
    outer loop
      vertex -5 -16.3458 1.62695
      vertex 5 -16.3458 1.62695
      vertex 5 -16.7639 2.35114
    endloop
  endfacet
  facet normal -8.12738e-017 -0.866025 -0.5
    outer loop
      vertex -5 -16.7639 2.35114
      vertex -5 -16.3458 1.62695
      vertex 5 -16.7639 2.35114
    endloop
  endfacet
  facet normal -1.64343e-017 -0.743144 -0.669131
    outer loop
      vertex -5 -17.1832 2.81679
      vertex -5 -16.7639 2.35114
      vertex 5 -16.7639 2.35114
    endloop
  endfacet
  facet normal -1.64343e-017 -0.743144 -0.669131
    outer loop
      vertex 5 -17.3235 2.97258
      vertex -5 -17.1832 2.81679
      vertex 5 -17.1832 2.81679
    endloop
  endfacet
  facet normal -1.64343e-017 -0.743144 -0.669131
    outer loop
      vertex 5 -17.1832 2.81679
      vertex -5 -17.1832 2.81679
      vertex 5 -16.7639 2.35114
    endloop
  endfacet
  facet normal -1.64343e-017 -0.743144 -0.669131
    outer loop
      vertex -5 -17.3235 2.97258
      vertex -5 -17.1832 2.81679
      vertex 5 -17.3235 2.97258
    endloop
  endfacet
  facet normal -1.42562e-016 -0.951057 -0.309016
    outer loop
      vertex -5 -16.0874 0.831647
      vertex 5 -16.0874 0.831647
      vertex 5 -16.3458 1.62695
    endloop
  endfacet
  facet normal -1.42562e-016 -0.951057 -0.309016
    outer loop
      vertex -5 -16.3458 1.62695
      vertex -5 -16.0874 0.831647
      vertex 5 -16.3458 1.62695
    endloop
  endfacet
  facet normal -4.91234e-017 0.587785 0.809017
    outer loop
      vertex -5 -14.7224 6
      vertex -5 -16 6.9282
      vertex -1.75 -16 6.9282
    endloop
  endfacet
  facet normal -4.91234e-017 0.587785 0.809017
    outer loop
      vertex -5 -14.647 5.94516
      vertex -5 -16 6.9282
      vertex -5 -14.7224 6
    endloop
  endfacet
  facet normal -4.91234e-017 0.587785 0.809017
    outer loop
      vertex -1.75 -14.7224 6
      vertex -5 -14.7224 6
      vertex -1.75 -16 6.9282
    endloop
  endfacet
  facet normal -1 2.22045e-016 -2.22045e-016
    outer loop
      vertex -5 -25.353 5.94516
      vertex -5 -24 6.9282
      vertex -5 -26.4721 4.70228
    endloop
  endfacet
  facet normal -1 2.22045e-016 -2.22045e-016
    outer loop
      vertex -5 -26.4721 4.70228
      vertex -5 -24 6.9282
      vertex -5 -22.4721 7.60845
    endloop
  endfacet
  facet normal -1 2.22045e-016 -2.22045e-016
    outer loop
      vertex -5 -26.4721 4.70228
      vertex -5 -22.4721 7.60845
      vertex -5 -20.8362 7.95617
    endloop
  endfacet
  facet normal -1 2.22045e-016 -2.22045e-016
    outer loop
      vertex -5 -26.4721 4.70228
      vertex -5 -20.8362 7.95617
      vertex -5 -19.1638 7.95617
    endloop
  endfacet
  facet normal -1 2.22045e-016 -2.22045e-016
    outer loop
      vertex -5 -26.4721 4.70228
      vertex -5 -19.1638 7.95617
      vertex -5 -17.5279 7.60845
    endloop
  endfacet
  facet normal -1 2.22045e-016 -2.22045e-016
    outer loop
      vertex -5 -26.4721 4.70228
      vertex -5 -17.5279 7.60845
      vertex -5 -16 6.9282
    endloop
  endfacet
  facet normal -1 2.22045e-016 -2.22045e-016
    outer loop
      vertex -5 -26.4721 4.70228
      vertex -5 -16 6.9282
      vertex -5 -14.647 5.94516
    endloop
  endfacet
  facet normal -1 2.22045e-016 -2.22045e-016
    outer loop
      vertex -5 -26.4721 4.70228
      vertex -5 -14.647 5.94516
      vertex -5 -14.3664 5.63359
    endloop
  endfacet
  facet normal -1 2.22045e-016 -2.22045e-016
    outer loop
      vertex -5 -17.3235 2.97258
      vertex -5 -14.3664 5.63359
      vertex -5 -17.1832 2.81679
    endloop
  endfacet
  facet normal -1 2.22045e-016 -2.22045e-016
    outer loop
      vertex -5 -18 3.4641
      vertex -5 -14.3664 5.63359
      vertex -5 -17.3235 2.97258
    endloop
  endfacet
  facet normal -1 2.22045e-016 -2.22045e-016
    outer loop
      vertex -5 -18.7639 3.80423
      vertex -5 -14.3664 5.63359
      vertex -5 -18 3.4641
    endloop
  endfacet
  facet normal -1 2.22045e-016 -2.22045e-016
    outer loop
      vertex -5 -19.5819 3.97809
      vertex -5 -14.3664 5.63359
      vertex -5 -18.7639 3.80423
    endloop
  endfacet
  facet normal -1 2.22045e-016 -2.22045e-016
    outer loop
      vertex -5 -26.4721 4.70228
      vertex -5 -14.3664 5.63359
      vertex -5 -19.5819 3.97809
    endloop
  endfacet
  facet normal -1 2.22045e-016 -2.22045e-016
    outer loop
      vertex -5 -21.2361 3.80423
      vertex -5 -26.4721 4.70228
      vertex -5 -20.4181 3.97809
    endloop
  endfacet
  facet normal -1 2.22045e-016 -2.22045e-016
    outer loop
      vertex -5 -22 3.4641
      vertex -5 -26.4721 4.70228
      vertex -5 -21.2361 3.80423
    endloop
  endfacet
  facet normal -1 2.22045e-016 -2.22045e-016
    outer loop
      vertex -5 -26.4721 4.70228
      vertex -5 -22 3.4641
      vertex -5 -22.6765 2.97258
    endloop
  endfacet
  facet normal -1 2.22045e-016 -2.22045e-016
    outer loop
      vertex -5 -22.6765 2.97258
      vertex -5 -23.2361 2.35114
      vertex -5 -26.4721 4.70228
    endloop
  endfacet
  facet normal -1 2.22045e-016 -2.22045e-016
    outer loop
      vertex -5 -23.2361 2.35114
      vertex -5 -23.6542 1.62695
      vertex -5 -26.4721 4.70228
    endloop
  endfacet
  facet normal -1 2.22045e-016 -2.22045e-016
    outer loop
      vertex -5 -23.6542 1.62695
      vertex -5 -23.9126 0.831647
      vertex -5 -26.4721 4.70228
    endloop
  endfacet
  facet normal -1 2.22045e-016 -2.22045e-016
    outer loop
      vertex -5 -23.9126 0.831647
      vertex -5 -24 0
      vertex -5 -26.4721 4.70228
    endloop
  endfacet
  facet normal -1 2.22045e-016 -2.22045e-016
    outer loop
      vertex -5 -26.4721 4.70228
      vertex -5 -24 0
      vertex -5 -28 0
    endloop
  endfacet
  facet normal -1 2.22045e-016 -2.22045e-016
    outer loop
      vertex -5 -26.4721 4.70228
      vertex -5 -28 0
      vertex -5 -27.8252 1.66329
    endloop
  endfacet
  facet normal -1 2.22045e-016 -2.22045e-016
    outer loop
      vertex -5 -26.4721 4.70228
      vertex -5 -27.8252 1.66329
      vertex -5 -27.3084 3.25389
    endloop
  endfacet
  facet normal -1 2.22045e-016 -2.22045e-016
    outer loop
      vertex -5 -20.4181 3.97809
      vertex -5 -26.4721 4.70228
      vertex -5 -19.5819 3.97809
    endloop
  endfacet
  facet normal 4.9123e-017 -0.587786 -0.809016
    outer loop
      vertex 5 -17.3235 2.97258
      vertex 5 -18 3.4641
      vertex -5 -17.3235 2.97258
    endloop
  endfacet
  facet normal 4.9123e-017 -0.587786 -0.809016
    outer loop
      vertex -5 -17.3235 2.97258
      vertex 5 -18 3.4641
      vertex -5 -18 3.4641
    endloop
  endfacet
  facet normal 1.12534e-016 -0.406736 -0.913546
    outer loop
      vertex 5 -18 3.4641
      vertex 5 -18.7639 3.80423
      vertex -5 -18 3.4641
    endloop
  endfacet
  facet normal 1.12534e-016 -0.406736 -0.913546
    outer loop
      vertex -5 -18 3.4641
      vertex 5 -18.7639 3.80423
      vertex -5 -18.7639 3.80423
    endloop
  endfacet
  facet normal 1.71027e-016 -0.207912 -0.978147
    outer loop
      vertex 5 -18.7639 3.80423
      vertex 5 -19.5819 3.97809
      vertex -5 -18.7639 3.80423
    endloop
  endfacet
  facet normal 1.71027e-016 -0.207912 -0.978147
    outer loop
      vertex -5 -18.7639 3.80423
      vertex 5 -19.5819 3.97809
      vertex -5 -19.5819 3.97809
    endloop
  endfacet
  facet normal 2.22045e-016 -4.93038e-032 -1
    outer loop
      vertex 5 -19.5819 3.97809
      vertex 5 -20 3.97809
      vertex -5 -19.5819 3.97809
    endloop
  endfacet
  facet normal 2.22045e-016 -4.93038e-032 -1
    outer loop
      vertex -5 -19.5819 3.97809
      vertex 5 -20 3.97809
      vertex 5 -20.4181 3.97809
    endloop
  endfacet
  facet normal 2.22045e-016 -4.93038e-032 -1
    outer loop
      vertex -5 -19.5819 3.97809
      vertex 5 -20.4181 3.97809
      vertex -5 -20.4181 3.97809
    endloop
  endfacet
  facet normal -2.63358e-016 -0.207912 0.978148
    outer loop
      vertex -5 -20.8362 7.95617
      vertex -5 -22.4721 7.60845
      vertex -1.75 -22.4721 7.60845
    endloop
  endfacet
  facet normal -2.63358e-016 -0.207912 0.978148
    outer loop
      vertex -1.75 -20.8362 7.95617
      vertex -5 -20.8362 7.95617
      vertex -1.75 -22.4721 7.60845
    endloop
  endfacet
  facet normal -2.93162e-016 -0.406737 0.913545
    outer loop
      vertex -5 -22.4721 7.60845
      vertex -5 -24 6.9282
      vertex -1.75 -24 6.9282
    endloop
  endfacet
  facet normal -2.93162e-016 -0.406737 0.913545
    outer loop
      vertex -1.75 -22.4721 7.60845
      vertex -5 -22.4721 7.60845
      vertex -1.75 -24 6.9282
    endloop
  endfacet
  facet normal -2.22045e-016 4.93038e-032 1
    outer loop
      vertex -5 -19.1638 7.95617
      vertex -5 -20.8362 7.95617
      vertex -1.75 -20.8362 7.95617
    endloop
  endfacet
  facet normal -2.22045e-016 4.93038e-032 1
    outer loop
      vertex -1.75 -19.1638 7.95617
      vertex -5 -19.1638 7.95617
      vertex -1.75 -20.8362 7.95617
    endloop
  endfacet
  facet normal -1.71027e-016 0.207912 0.978148
    outer loop
      vertex -5 -17.5279 7.60845
      vertex -5 -19.1638 7.95617
      vertex -1.75 -19.1638 7.95617
    endloop
  endfacet
  facet normal -1.71027e-016 0.207912 0.978148
    outer loop
      vertex -1.75 -17.5279 7.60845
      vertex -5 -17.5279 7.60845
      vertex -1.75 -19.1638 7.95617
    endloop
  endfacet
  facet normal -1.12534e-016 0.406737 0.913545
    outer loop
      vertex -5 -16 6.9282
      vertex -5 -17.5279 7.60845
      vertex -1.75 -17.5279 7.60845
    endloop
  endfacet
  facet normal -1.12534e-016 0.406737 0.913545
    outer loop
      vertex -1.75 -16 6.9282
      vertex -5 -16 6.9282
      vertex -1.75 -17.5279 7.60845
    endloop
  endfacet
  facet normal 1.65011e-016 -0.669131 -0.743145
    outer loop
      vertex 1.75 -13.6833 5.68761
      vertex 1.75 -14.0302 6
      vertex -1.75 -13.6833 5.68761
    endloop
  endfacet
  facet normal 1.65011e-016 -0.669131 -0.743145
    outer loop
      vertex -1.75 -13.6833 5.68761
      vertex 1.75 -14.0302 6
      vertex -1.75 -14.0302 6
    endloop
  endfacet
  facet normal 1.30515e-016 -0.809017 -0.587785
    outer loop
      vertex -1.75 -12.6388 4.25
      vertex 1.75 -12.6388 4.25
      vertex 1.75 -13.6833 5.68761
    endloop
  endfacet
  facet normal 1.30515e-016 -0.809017 -0.587785
    outer loop
      vertex -1.75 -13.6833 5.68761
      vertex -1.75 -12.6388 4.25
      vertex 1.75 -13.6833 5.68761
    endloop
  endfacet
  facet normal 9.03136e-017 -0.913546 -0.406736
    outer loop
      vertex -1.75 -11.916 2.62664
      vertex 1.75 -11.916 2.62664
      vertex 1.75 -12.6388 4.25
    endloop
  endfacet
  facet normal 9.03136e-017 -0.913546 -0.406736
    outer loop
      vertex -1.75 -12.6388 4.25
      vertex -1.75 -11.916 2.62664
      vertex 1.75 -12.6388 4.25
    endloop
  endfacet
  facet normal 4.61657e-017 -0.978148 -0.207912
    outer loop
      vertex -1.75 -11.5466 0.888492
      vertex 1.75 -11.5466 0.888492
      vertex 1.75 -11.916 2.62664
    endloop
  endfacet
  facet normal 4.61657e-017 -0.978148 -0.207912
    outer loop
      vertex -1.75 -11.916 2.62664
      vertex -1.75 -11.5466 0.888492
      vertex 1.75 -11.916 2.62664
    endloop
  endfacet
  facet normal -4.61656e-017 0.978148 0.207911
    outer loop
      vertex -1.75 -13.3426 2.16312
      vertex 1.75 -13.3426 2.16312
      vertex -1.75 -13.0383 0.731699
    endloop
  endfacet
  facet normal -4.61656e-017 0.978148 0.207911
    outer loop
      vertex -1.75 -13.0383 0.731699
      vertex 1.75 -13.3426 2.16312
      vertex 1.75 -13.0383 0.731699
    endloop
  endfacet
  facet normal -9.03137e-017 0.913545 0.406737
    outer loop
      vertex -1.75 -13.9378 3.5
      vertex 1.75 -13.9378 3.5
      vertex -1.75 -13.3426 2.16312
    endloop
  endfacet
  facet normal -9.03137e-017 0.913545 0.406737
    outer loop
      vertex -1.75 -13.3426 2.16312
      vertex 1.75 -13.9378 3.5
      vertex 1.75 -13.3426 2.16312
    endloop
  endfacet
  facet normal -1.30515e-016 0.809017 0.587785
    outer loop
      vertex -1.75 -14.798 4.68391
      vertex 1.75 -14.798 4.68391
      vertex -1.75 -13.9378 3.5
    endloop
  endfacet
  facet normal -1.30515e-016 0.809017 0.587785
    outer loop
      vertex -1.75 -13.9378 3.5
      vertex 1.75 -14.798 4.68391
      vertex 1.75 -13.9378 3.5
    endloop
  endfacet
  facet normal -1.65011e-016 0.669131 0.743145
    outer loop
      vertex -1.75 -14.798 4.68391
      vertex -1.75 -15.8855 5.66312
      vertex 1.75 -15.8855 5.66312
    endloop
  endfacet
  facet normal -1.65011e-016 0.669131 0.743145
    outer loop
      vertex 1.75 -14.798 4.68391
      vertex -1.75 -14.798 4.68391
      vertex 1.75 -15.8855 5.66312
    endloop
  endfacet
  facet normal -1.92296e-016 0.5 0.866025
    outer loop
      vertex -1.75 -15.8855 5.66312
      vertex -1.75 -17.1528 6.39482
      vertex 1.75 -17.1528 6.39482
    endloop
  endfacet
  facet normal -1.92296e-016 0.5 0.866025
    outer loop
      vertex 1.75 -15.8855 5.66312
      vertex -1.75 -15.8855 5.66312
      vertex 1.75 -17.1528 6.39482
    endloop
  endfacet
  facet normal -2.11177e-016 0.309017 0.951057
    outer loop
      vertex -1.75 -17.1528 6.39482
      vertex -1.75 -18.5446 6.84703
      vertex 1.75 -18.5446 6.84703
    endloop
  endfacet
  facet normal -2.11177e-016 0.309017 0.951057
    outer loop
      vertex 1.75 -17.1528 6.39482
      vertex -1.75 -17.1528 6.39482
      vertex 1.75 -18.5446 6.84703
    endloop
  endfacet
  facet normal -2.20828e-016 0.104529 0.994522
    outer loop
      vertex -1.75 -18.5446 6.84703
      vertex -1.75 -20 7
      vertex 1.75 -20 7
    endloop
  endfacet
  facet normal -2.20828e-016 0.104529 0.994522
    outer loop
      vertex 1.75 -18.5446 6.84703
      vertex -1.75 -18.5446 6.84703
      vertex 1.75 -20 7
    endloop
  endfacet
  facet normal -2.20828e-016 -0.104529 0.994522
    outer loop
      vertex 1.75 -20 7
      vertex -1.75 -20 7
      vertex -1.75 -21.4554 6.84703
    endloop
  endfacet
  facet normal -2.20828e-016 -0.104529 0.994522
    outer loop
      vertex 1.75 -21.4554 6.84703
      vertex 1.75 -20 7
      vertex -1.75 -21.4554 6.84703
    endloop
  endfacet
  facet normal -2.11177e-016 -0.309017 0.951057
    outer loop
      vertex 1.75 -21.4554 6.84703
      vertex -1.75 -21.4554 6.84703
      vertex -1.75 -22.8472 6.39482
    endloop
  endfacet
  facet normal -2.11177e-016 -0.309017 0.951057
    outer loop
      vertex 1.75 -22.8472 6.39482
      vertex 1.75 -21.4554 6.84703
      vertex -1.75 -22.8472 6.39482
    endloop
  endfacet
  facet normal -1.92296e-016 -0.5 0.866025
    outer loop
      vertex 1.75 -22.8472 6.39482
      vertex -1.75 -22.8472 6.39482
      vertex -1.75 -24.1145 5.66312
    endloop
  endfacet
  facet normal -1.92296e-016 -0.5 0.866025
    outer loop
      vertex 1.75 -24.1145 5.66312
      vertex 1.75 -22.8472 6.39482
      vertex -1.75 -24.1145 5.66312
    endloop
  endfacet
  facet normal -1.65011e-016 -0.669131 0.743145
    outer loop
      vertex 1.75 -24.1145 5.66312
      vertex -1.75 -24.1145 5.66312
      vertex -1.75 -25.202 4.68391
    endloop
  endfacet
  facet normal -1.65011e-016 -0.669131 0.743145
    outer loop
      vertex 1.75 -25.202 4.68391
      vertex 1.75 -24.1145 5.66312
      vertex -1.75 -25.202 4.68391
    endloop
  endfacet
  facet normal -1.30515e-016 -0.809017 0.587785
    outer loop
      vertex 1.75 -25.202 4.68391
      vertex -1.75 -25.202 4.68391
      vertex -1.75 -26.0622 3.5
    endloop
  endfacet
  facet normal -1.30515e-016 -0.809017 0.587785
    outer loop
      vertex 1.75 -26.0622 3.5
      vertex 1.75 -25.202 4.68391
      vertex -1.75 -26.0622 3.5
    endloop
  endfacet
  facet normal -9.03137e-017 -0.913545 0.406737
    outer loop
      vertex 1.75 -26.0622 3.5
      vertex -1.75 -26.0622 3.5
      vertex -1.75 -26.6574 2.16312
    endloop
  endfacet
  facet normal -9.03137e-017 -0.913545 0.406737
    outer loop
      vertex 1.75 -26.6574 2.16312
      vertex 1.75 -26.0622 3.5
      vertex -1.75 -26.6574 2.16312
    endloop
  endfacet
  facet normal -4.61656e-017 -0.978148 0.207911
    outer loop
      vertex 1.75 -26.6574 2.16312
      vertex -1.75 -26.6574 2.16312
      vertex -1.75 -26.9617 0.731699
    endloop
  endfacet
  facet normal -4.61656e-017 -0.978148 0.207911
    outer loop
      vertex 1.75 -26.9617 0.731699
      vertex 1.75 -26.6574 2.16312
      vertex -1.75 -26.9617 0.731699
    endloop
  endfacet
  facet normal 0 -1 0
    outer loop
      vertex 1.75 -26.9617 0.731699
      vertex -1.75 -26.9617 0.731699
      vertex -1.75 -26.9617 0
    endloop
  endfacet
  facet normal 0 -1 0
    outer loop
      vertex 1.75 -26.9617 0
      vertex 1.75 -26.9617 0.731699
      vertex -1.75 -26.9617 0
    endloop
  endfacet
  facet normal 0 0 -1
    outer loop
      vertex -5 -28 0
      vertex -5 -24 0
      vertex -1.75 -28 0
    endloop
  endfacet
  facet normal 0 0 -1
    outer loop
      vertex -1.75 -26.9617 0
      vertex -5 -24 0
      vertex -8.88178e-016 -24 0
    endloop
  endfacet
  facet normal 0 0 -1
    outer loop
      vertex 1.75 -26.9617 0
      vertex 5 -24 0
      vertex 5 -28 0
    endloop
  endfacet
  facet normal 0 0 -1
    outer loop
      vertex -1.75 -26.9617 0
      vertex 5 -24 0
      vertex 1.75 -26.9617 0
    endloop
  endfacet
  facet normal 0 0 -1
    outer loop
      vertex -1.75 -26.9617 0
      vertex -8.88178e-016 -24 0
      vertex 5 -24 0
    endloop
  endfacet
  facet normal 0 0 -1
    outer loop
      vertex -1.75 -28 0
      vertex -5 -24 0
      vertex -1.75 -26.9617 0
    endloop
  endfacet
  facet normal 0 0 -1
    outer loop
      vertex 1.75 -26.9617 0
      vertex 5 -28 0
      vertex 1.75 -28 0
    endloop
  endfacet
  facet normal -2.44038e-016 -0.994522 0.104528
    outer loop
      vertex -1.75 -27.8252 1.66329
      vertex -5 -27.8252 1.66329
      vertex -5 -28 0
    endloop
  endfacet
  facet normal -2.44038e-016 -0.994522 0.104528
    outer loop
      vertex -1.75 -28 0
      vertex -1.75 -27.8252 1.66329
      vertex -5 -28 0
    endloop
  endfacet
  facet normal -2.79793e-016 -0.951057 0.309017
    outer loop
      vertex -1.75 -27.3084 3.25389
      vertex -5 -27.3084 3.25389
      vertex -5 -27.8252 1.66329
    endloop
  endfacet
  facet normal -2.79793e-016 -0.951057 0.309017
    outer loop
      vertex -1.75 -27.8252 1.66329
      vertex -1.75 -27.3084 3.25389
      vertex -5 -27.8252 1.66329
    endloop
  endfacet
  facet normal -3.03319e-016 -0.866025 0.5
    outer loop
      vertex -1.75 -26.4721 4.70228
      vertex -5 -26.4721 4.70228
      vertex -5 -27.3084 3.25389
    endloop
  endfacet
  facet normal -3.03319e-016 -0.866025 0.5
    outer loop
      vertex -1.75 -27.3084 3.25389
      vertex -1.75 -26.4721 4.70228
      vertex -5 -27.3084 3.25389
    endloop
  endfacet
  facet normal -3.13588e-016 -0.743145 0.66913
    outer loop
      vertex -1.75 -25.353 5.94516
      vertex -5 -25.353 5.94516
      vertex -5 -26.4721 4.70228
    endloop
  endfacet
  facet normal -3.13588e-016 -0.743145 0.66913
    outer loop
      vertex -1.75 -26.4721 4.70228
      vertex -1.75 -25.353 5.94516
      vertex -5 -26.4721 4.70228
    endloop
  endfacet
  facet normal -3.10152e-016 -0.587785 0.809017
    outer loop
      vertex -5 -24 6.9282
      vertex -5 -25.353 5.94516
      vertex -1.75 -25.353 5.94516
    endloop
  endfacet
  facet normal -3.10152e-016 -0.587785 0.809017
    outer loop
      vertex -1.75 -24 6.9282
      vertex -5 -24 6.9282
      vertex -1.75 -25.353 5.94516
    endloop
  endfacet
  facet normal -2.22045e-016 4.93038e-032 1
    outer loop
      vertex 1.75 -19.1638 7.95617
      vertex 1.75 -20.8362 7.95617
      vertex 5 -20.8362 7.95618
    endloop
  endfacet
  facet normal -2.22045e-016 4.93038e-032 1
    outer loop
      vertex 5 -19.1638 7.95618
      vertex 1.75 -19.1638 7.95617
      vertex 5 -20.8362 7.95618
    endloop
  endfacet
  facet normal -1.71027e-016 0.207912 0.978148
    outer loop
      vertex 1.75 -17.5279 7.60845
      vertex 1.75 -19.1638 7.95617
      vertex 5 -19.1638 7.95618
    endloop
  endfacet
  facet normal -1.71027e-016 0.207912 0.978148
    outer loop
      vertex 5 -17.5279 7.60845
      vertex 1.75 -17.5279 7.60845
      vertex 5 -19.1638 7.95618
    endloop
  endfacet
  facet normal -2.63358e-016 -0.207912 0.978148
    outer loop
      vertex 5 -20.8362 7.95618
      vertex 1.75 -20.8362 7.95617
      vertex 1.75 -22.4721 7.60845
    endloop
  endfacet
  facet normal -2.63358e-016 -0.207912 0.978148
    outer loop
      vertex 5 -22.4721 7.60845
      vertex 5 -20.8362 7.95618
      vertex 1.75 -22.4721 7.60845
    endloop
  endfacet
  facet normal -2.93162e-016 -0.406737 0.913545
    outer loop
      vertex 5 -22.4721 7.60845
      vertex 1.75 -22.4721 7.60845
      vertex 1.75 -24 6.9282
    endloop
  endfacet
  facet normal -2.93162e-016 -0.406737 0.913545
    outer loop
      vertex 5 -24 6.9282
      vertex 5 -22.4721 7.60845
      vertex 1.75 -24 6.9282
    endloop
  endfacet
  facet normal -3.10152e-016 -0.587785 0.809017
    outer loop
      vertex 5 -24 6.9282
      vertex 1.75 -24 6.9282
      vertex 1.75 -25.353 5.94516
    endloop
  endfacet
  facet normal -3.10152e-016 -0.587785 0.809017
    outer loop
      vertex 5 -25.353 5.94516
      vertex 5 -24 6.9282
      vertex 1.75 -25.353 5.94516
    endloop
  endfacet
  facet normal -3.13588e-016 -0.743145 0.66913
    outer loop
      vertex 5 -25.353 5.94516
      vertex 1.75 -25.353 5.94516
      vertex 1.75 -26.4721 4.70228
    endloop
  endfacet
  facet normal -3.13588e-016 -0.743145 0.66913
    outer loop
      vertex 5 -26.4721 4.70228
      vertex 5 -25.353 5.94516
      vertex 1.75 -26.4721 4.70228
    endloop
  endfacet
  facet normal -3.03319e-016 -0.866025 0.5
    outer loop
      vertex 5 -26.4721 4.70228
      vertex 1.75 -26.4721 4.70228
      vertex 1.75 -27.3084 3.25389
    endloop
  endfacet
  facet normal -3.03319e-016 -0.866025 0.5
    outer loop
      vertex 5 -27.3084 3.25389
      vertex 5 -26.4721 4.70228
      vertex 1.75 -27.3084 3.25389
    endloop
  endfacet
  facet normal -2.79793e-016 -0.951057 0.309017
    outer loop
      vertex 5 -27.3084 3.25389
      vertex 1.75 -27.3084 3.25389
      vertex 1.75 -27.8252 1.66329
    endloop
  endfacet
  facet normal -2.79793e-016 -0.951057 0.309017
    outer loop
      vertex 5 -27.8252 1.66329
      vertex 5 -27.3084 3.25389
      vertex 1.75 -27.8252 1.66329
    endloop
  endfacet
  facet normal -2.44038e-016 -0.994522 0.104528
    outer loop
      vertex 5 -27.8252 1.66329
      vertex 1.75 -27.8252 1.66329
      vertex 1.75 -28 3.88578e-016
    endloop
  endfacet
  facet normal -2.44038e-016 -0.994522 0.104528
    outer loop
      vertex 5 -28 1.11022e-015
      vertex 5 -27.8252 1.66329
      vertex 1.75 -28 3.88578e-016
    endloop
  endfacet
  facet normal -1.97618e-016 -0.994522 -0.104528
    outer loop
      vertex 5 -28 1.11022e-015
      vertex 1.75 -28 3.88578e-016
      vertex 1.75 -28 0
    endloop
  endfacet
  facet normal -1.97618e-016 -0.994522 -0.104528
    outer loop
      vertex 5 -28 0
      vertex 5 -28 1.11022e-015
      vertex 1.75 -28 0
    endloop
  endfacet
  facet normal -4.91234e-017 0.587785 0.809017
    outer loop
      vertex 1.75 -14.7224 6
      vertex 1.75 -16 6.9282
      vertex 5 -16 6.9282
    endloop
  endfacet
  facet normal -4.91234e-017 0.587785 0.809017
    outer loop
      vertex 5 -14.7224 6
      vertex 1.75 -14.7224 6
      vertex 5 -16 6.9282
    endloop
  endfacet
  facet normal -1.12534e-016 0.406737 0.913545
    outer loop
      vertex 1.75 -16 6.9282
      vertex 1.75 -17.5279 7.60845
      vertex 5 -17.5279 7.60845
    endloop
  endfacet
  facet normal -1.12534e-016 0.406737 0.913545
    outer loop
      vertex 5 -16 6.9282
      vertex 1.75 -16 6.9282
      vertex 5 -17.5279 7.60845
    endloop
  endfacet
  facet normal 1 -2.22045e-016 2.22045e-016
    outer loop
      vertex 5 -24 6.9282
      vertex 5 -25.353 5.94516
      vertex 5 -26.4721 4.70228
    endloop
  endfacet
  facet normal 1 -2.22045e-016 2.22045e-016
    outer loop
      vertex 5 -27.8252 1.66329
      vertex 5 -24 6.9282
      vertex 5 -27.3084 3.25389
    endloop
  endfacet
  facet normal 1 -2.22045e-016 2.22045e-016
    outer loop
      vertex 5 -27.3084 3.25389
      vertex 5 -24 6.9282
      vertex 5 -26.4721 4.70228
    endloop
  endfacet
  facet normal 1 -2.22045e-016 2.22045e-016
    outer loop
      vertex 5 -28 1.11022e-015
      vertex 5 -24 6.9282
      vertex 5 -27.8252 1.66329
    endloop
  endfacet
  facet normal 1 -2.22045e-016 2.22045e-016
    outer loop
      vertex 5 -28 0
      vertex 5 -24 6.9282
      vertex 5 -28 1.11022e-015
    endloop
  endfacet
  facet normal 1 -2.22045e-016 2.22045e-016
    outer loop
      vertex 5 -24 1.11022e-015
      vertex 5 -24 6.9282
      vertex 5 -28 0
    endloop
  endfacet
  facet normal 1 -2.22045e-016 2.22045e-016
    outer loop
      vertex 5 -24 0
      vertex 5 -24 1.11022e-015
      vertex 5 -28 0
    endloop
  endfacet
  facet normal 1 -2.22045e-016 2.22045e-016
    outer loop
      vertex 5 -23.6542 1.62695
      vertex 5 -24 6.9282
      vertex 5 -23.9126 0.831647
    endloop
  endfacet
  facet normal 1 -2.22045e-016 2.22045e-016
    outer loop
      vertex 5 -23.2361 2.35114
      vertex 5 -24 6.9282
      vertex 5 -23.6542 1.62695
    endloop
  endfacet
  facet normal 1 -2.22045e-016 2.22045e-016
    outer loop
      vertex 5 -22.6765 2.97258
      vertex 5 -24 6.9282
      vertex 5 -23.2361 2.35114
    endloop
  endfacet
  facet normal 1 -2.22045e-016 2.22045e-016
    outer loop
      vertex 5 -22 3.4641
      vertex 5 -24 6.9282
      vertex 5 -22.6765 2.97258
    endloop
  endfacet
  facet normal 1 -2.22045e-016 2.22045e-016
    outer loop
      vertex 5 -21.2361 3.80423
      vertex 5 -24 6.9282
      vertex 5 -22 3.4641
    endloop
  endfacet
  facet normal 1 -2.22045e-016 2.22045e-016
    outer loop
      vertex 5 -20.4181 3.97809
      vertex 5 -24 6.9282
      vertex 5 -21.2361 3.80423
    endloop
  endfacet
  facet normal 1 -2.22045e-016 2.22045e-016
    outer loop
      vertex 5 -20 3.97809
      vertex 5 -24 6.9282
      vertex 5 -20.4181 3.97809
    endloop
  endfacet
  facet normal 1 -2.22045e-016 2.22045e-016
    outer loop
      vertex 5 -20 6
      vertex 5 -24 6.9282
      vertex 5 -20 3.97809
    endloop
  endfacet
  facet normal 1 -2.22045e-016 2.22045e-016
    outer loop
      vertex 5 -14.7224 6
      vertex 5 -24 6.9282
      vertex 5 -20 6
    endloop
  endfacet
  facet normal 1 -2.22045e-016 2.22045e-016
    outer loop
      vertex 5 -16 6.9282
      vertex 5 -24 6.9282
      vertex 5 -14.7224 6
    endloop
  endfacet
  facet normal 1 -2.22045e-016 2.22045e-016
    outer loop
      vertex 5 -17.5279 7.60845
      vertex 5 -24 6.9282
      vertex 5 -16 6.9282
    endloop
  endfacet
  facet normal 1 -2.22045e-016 2.22045e-016
    outer loop
      vertex 5 -19.1638 7.95618
      vertex 5 -24 6.9282
      vertex 5 -17.5279 7.60845
    endloop
  endfacet
  facet normal 1 -2.22045e-016 2.22045e-016
    outer loop
      vertex 5 -20.8362 7.95618
      vertex 5 -24 6.9282
      vertex 5 -19.1638 7.95618
    endloop
  endfacet
  facet normal 1 -2.22045e-016 2.22045e-016
    outer loop
      vertex 5 -22.4721 7.60845
      vertex 5 -24 6.9282
      vertex 5 -20.8362 7.95618
    endloop
  endfacet
  facet normal 1 -2.22045e-016 2.22045e-016
    outer loop
      vertex 5 -24 1.11022e-015
      vertex 5 -23.9126 0.831647
      vertex 5 -24 6.9282
    endloop
  endfacet
  facet normal 2.44038e-016 0.994522 -0.104529
    outer loop
      vertex 5 -24 1.11022e-015
      vertex -8.88178e-016 -24 0
      vertex 5 -23.9126 0.831647
    endloop
  endfacet
  facet normal 2.44038e-016 0.994522 -0.104529
    outer loop
      vertex 5 -23.9126 0.831647
      vertex -8.88178e-016 -24 0
      vertex -5 -24 0
    endloop
  endfacet
  facet normal 2.44038e-016 0.994522 -0.104529
    outer loop
      vertex 5 -23.9126 0.831647
      vertex -5 -24 0
      vertex -5 -23.9126 0.831647
    endloop
  endfacet
  facet normal 2.79792e-016 0.951057 -0.309016
    outer loop
      vertex 5 -23.9126 0.831647
      vertex -5 -23.9126 0.831647
      vertex 5 -23.6542 1.62695
    endloop
  endfacet
  facet normal 2.79792e-016 0.951057 -0.309016
    outer loop
      vertex 5 -23.6542 1.62695
      vertex -5 -23.9126 0.831647
      vertex -5 -23.6542 1.62695
    endloop
  endfacet
  facet normal 3.03319e-016 0.866025 -0.5
    outer loop
      vertex 5 -23.6542 1.62695
      vertex -5 -23.6542 1.62695
      vertex 5 -23.2361 2.35114
    endloop
  endfacet
  facet normal 3.03319e-016 0.866025 -0.5
    outer loop
      vertex 5 -23.2361 2.35114
      vertex -5 -23.6542 1.62695
      vertex -5 -23.2361 2.35114
    endloop
  endfacet
  facet normal 3.13588e-016 0.743144 -0.669131
    outer loop
      vertex 5 -23.2361 2.35114
      vertex -5 -23.2361 2.35114
      vertex 5 -22.6765 2.97258
    endloop
  endfacet
  facet normal 3.13588e-016 0.743144 -0.669131
    outer loop
      vertex 5 -22.6765 2.97258
      vertex -5 -23.2361 2.35114
      vertex -5 -22.6765 2.97258
    endloop
  endfacet
  facet normal 3.10152e-016 0.587786 -0.809016
    outer loop
      vertex 5 -22 3.4641
      vertex 5 -22.6765 2.97258
      vertex -5 -22 3.4641
    endloop
  endfacet
  facet normal 3.10152e-016 0.587786 -0.809016
    outer loop
      vertex -5 -22 3.4641
      vertex 5 -22.6765 2.97258
      vertex -5 -22.6765 2.97258
    endloop
  endfacet
  facet normal 2.93161e-016 0.406736 -0.913546
    outer loop
      vertex 5 -21.2361 3.80423
      vertex 5 -22 3.4641
      vertex -5 -21.2361 3.80423
    endloop
  endfacet
  facet normal 2.93161e-016 0.406736 -0.913546
    outer loop
      vertex -5 -21.2361 3.80423
      vertex 5 -22 3.4641
      vertex -5 -22 3.4641
    endloop
  endfacet
  facet normal 2.63358e-016 0.207912 -0.978147
    outer loop
      vertex 5 -20.4181 3.97809
      vertex 5 -21.2361 3.80423
      vertex -5 -20.4181 3.97809
    endloop
  endfacet
  facet normal 2.63358e-016 0.207912 -0.978147
    outer loop
      vertex -5 -20.4181 3.97809
      vertex 5 -21.2361 3.80423
      vertex -5 -21.2361 3.80423
    endloop
  endfacet
  facet normal 1.97618e-016 0.994522 0.104529
    outer loop
      vertex 5 -24 1.11022e-015
      vertex 5 -24 0
      vertex -8.88178e-016 -24 0
    endloop
  endfacet
endsolid OpenSCAD_Model
