solid Bobina holder v 2  part1
facet normal 0.0 0.0 1.0
  outer loop
    vertex 14.0 2.99999999999999 120.0
    vertex 3.0 6.0 120.0
    vertex 3.0 3.0 120.0
  endloop
endfacet
facet normal 0.0 0.0 1.0
  outer loop
    vertex 3.0 6.0 120.0
    vertex 14.0 2.99999999999999 120.0
    vertex 6.0 6.0 120.0
  endloop
endfacet
facet normal 0.0 0.0 1.0
  outer loop
    vertex 6.0 6.0 120.0
    vertex 14.0 2.99999999999999 120.0
    vertex 6.0 8.0 120.0
  endloop
endfacet
facet normal 0.0 0.0 1.0
  outer loop
    vertex 6.0 8.0 120.0
    vertex 14.0 2.99999999999999 120.0
    vertex 9.99999997019768 8.00000000000007 120.0
  endloop
endfacet
facet normal 0.0 0.0 1.0
  outer loop
    vertex 9.99999997019768 8.00000000000007 120.0
    vertex 14.0 2.99999999999999 120.0
    vertex 14.0 8.0 120.0
  endloop
endfacet
facet normal 0.0 -1.0 0.0
  outer loop
    vertex 6.0 102.0 120.0
    vertex 3.0 102.0 108.0
    vertex 6.0 102.0 108.0
  endloop
endfacet
facet normal 0.0 -1.0 0.0
  outer loop
    vertex 3.0 102.0 108.0
    vertex 6.0 102.0 120.0
    vertex 3.0 102.0 120.0
  endloop
endfacet
facet normal -1.0 -0.0 -0.0
  outer loop
    vertex 3.0 105.0 120.0
    vertex 3.0 102.0 108.0
    vertex 3.0 102.0 120.0
  endloop
endfacet
facet normal -1.0 -0.0 -0.0
  outer loop
    vertex 3.0 102.0 108.0
    vertex 3.0 105.0 120.0
    vertex 3.0 105.0 108.0
  endloop
endfacet
facet normal 0.0 0.0 1.0
  outer loop
    vertex 9.99999997019768 100.0 120.0
    vertex 6.0 102.0 120.0
    vertex 6.0 100.0 120.0
  endloop
endfacet
facet normal 0.0 0.0 1.0
  outer loop
    vertex 6.0 102.0 120.0
    vertex 3.0 105.0 120.0
    vertex 3.0 102.0 120.0
  endloop
endfacet
facet normal 0.0 0.0 1.0
  outer loop
    vertex 3.0 105.0 120.0
    vertex 6.0 102.0 120.0
    vertex 14.0 105.0 120.0
  endloop
endfacet
facet normal 0.0 0.0 1.0
  outer loop
    vertex 14.0 105.0 120.0
    vertex 6.0 102.0 120.0
    vertex 9.99999997019768 100.0 120.0
  endloop
endfacet
facet normal 0.0 0.0 1.0
  outer loop
    vertex 14.0 105.0 120.0
    vertex 9.99999997019768 100.0 120.0
    vertex 14.0 100.0 120.0
  endloop
endfacet
facet normal 0.0 1.0 0.0
  outer loop
    vertex 3.0 105.0 120.0
    vertex 14.0 105.0 108.0
    vertex 3.0 105.0 108.0
  endloop
endfacet
facet normal 0.0 1.0 0.0
  outer loop
    vertex 14.0 105.0 108.0
    vertex 3.0 105.0 120.0
    vertex 14.0 105.0 120.0
  endloop
endfacet
facet normal 1.0 0.0 0.0
  outer loop
    vertex 14.0 2.99999999999999 108.0
    vertex 14.0 8.0 116.0
    vertex 14.0 2.99999999999999 120.0
  endloop
endfacet
facet normal 1.0 0.0 0.0
  outer loop
    vertex 14.0 8.0 116.0
    vertex 14.0 2.99999999999999 108.0
    vertex 14.0 105.0 108.0
  endloop
endfacet
facet normal 1.0 0.0 0.0
  outer loop
    vertex 14.0 8.0 116.0
    vertex 14.0 105.0 108.0
    vertex 14.0 100.0 116.0
  endloop
endfacet
facet normal 1.0 0.0 0.0
  outer loop
    vertex 14.0 100.0 116.0
    vertex 14.0 105.0 108.0
    vertex 14.0 100.0 120.0
  endloop
endfacet
facet normal 1.0 0.0 0.0
  outer loop
    vertex 14.0 100.0 120.0
    vertex 14.0 105.0 108.0
    vertex 14.0 105.0 120.0
  endloop
endfacet
facet normal 1.0 0.0 0.0
  outer loop
    vertex 14.0 8.0 120.0
    vertex 14.0 2.99999999999999 120.0
    vertex 14.0 8.0 116.0
  endloop
endfacet
facet normal -4.48631031314438e-016 -1.0 -0.0
  outer loop
    vertex 14.0 2.99999999999999 120.0
    vertex 3.0 3.0 108.0
    vertex 14.0 2.99999999999999 108.0
  endloop
endfacet
facet normal -4.48631031314438e-016 -1.0 -0.0
  outer loop
    vertex 3.0 3.0 108.0
    vertex 14.0 2.99999999999999 120.0
    vertex 3.0 3.0 120.0
  endloop
endfacet
facet normal -1.0 -0.0 -0.0
  outer loop
    vertex 3.0 6.0 120.0
    vertex 3.0 3.0 108.0
    vertex 3.0 3.0 120.0
  endloop
endfacet
facet normal -1.0 -0.0 -0.0
  outer loop
    vertex 3.0 3.0 108.0
    vertex 3.0 6.0 120.0
    vertex 3.0 6.0 108.0
  endloop
endfacet
facet normal 0.0 1.0 0.0
  outer loop
    vertex 3.0 6.0 120.0
    vertex 6.0 6.0 108.0
    vertex 3.0 6.0 108.0
  endloop
endfacet
facet normal 0.0 1.0 0.0
  outer loop
    vertex 6.0 6.0 108.0
    vertex 3.0 6.0 120.0
    vertex 6.0 6.0 120.0
  endloop
endfacet
facet normal -1.0 0.0 0.0
  outer loop
    vertex 6.0 102.0 120.0
    vertex 6.0 100.0 116.0
    vertex 6.0 100.0 120.0
  endloop
endfacet
facet normal -1.0 0.0 0.0
  outer loop
    vertex 6.0 8.0 120.0
    vertex 6.0 6.0 108.0
    vertex 6.0 6.0 120.0
  endloop
endfacet
facet normal -1.0 0.0 0.0
  outer loop
    vertex 6.0 6.0 108.0
    vertex 6.0 8.0 120.0
    vertex 6.0 8.0 116.0
  endloop
endfacet
facet normal -1.0 0.0 0.0
  outer loop
    vertex 6.0 6.0 108.0
    vertex 6.0 8.0 116.0
    vertex 6.0 102.0 108.0
  endloop
endfacet
facet normal -1.0 0.0 0.0
  outer loop
    vertex 6.0 102.0 108.0
    vertex 6.0 8.0 116.0
    vertex 6.0 100.0 116.0
  endloop
endfacet
facet normal -1.0 0.0 0.0
  outer loop
    vertex 6.0 102.0 108.0
    vertex 6.0 100.0 116.0
    vertex 6.0 102.0 120.0
  endloop
endfacet
facet normal -0.0 -0.0 -1.0
  outer loop
    vertex 14.0 105.0 108.0
    vertex 3.0 102.0 108.0
    vertex 3.0 105.0 108.0
  endloop
endfacet
facet normal -0.0 -0.0 -1.0
  outer loop
    vertex 3.0 102.0 108.0
    vertex 14.0 105.0 108.0
    vertex 6.0 102.0 108.0
  endloop
endfacet
facet normal -0.0 -0.0 -1.0
  outer loop
    vertex 6.0 102.0 108.0
    vertex 14.0 105.0 108.0
    vertex 6.0 6.0 108.0
  endloop
endfacet
facet normal -0.0 -0.0 -1.0
  outer loop
    vertex 6.0 6.0 108.0
    vertex 3.0 3.0 108.0
    vertex 3.0 6.0 108.0
  endloop
endfacet
facet normal -0.0 -0.0 -1.0
  outer loop
    vertex 3.0 3.0 108.0
    vertex 6.0 6.0 108.0
    vertex 14.0 2.99999999999999 108.0
  endloop
endfacet
facet normal -0.0 -0.0 -1.0
  outer loop
    vertex 14.0 2.99999999999999 108.0
    vertex 6.0 6.0 108.0
    vertex 14.0 105.0 108.0
  endloop
endfacet
facet normal 0.991444860482356 -9.69444612625566e-020 0.130526198991321
  outer loop
    vertex 14.0 100.0 116.0
    vertex 13.863703291015 8.00000000000007 117.035276233186
    vertex 14.0 8.0 116.0
  endloop
endfacet
facet normal 0.965925823717933 -4.88904956186104e-020 0.258819054698129
  outer loop
    vertex 13.863703291015 8.00000000000007 117.035276233186
    vertex 14.0 100.0 116.0
    vertex 13.863703291015 100.0 117.035276233186
  endloop
endfacet
facet normal -1.42538647571985e-014 1.0 3.46741147620728e-015
  outer loop
    vertex 6.0 8.0 120.0
    vertex 6.13629669355816 8.00000000000007 117.035276175612
    vertex 6.0 8.0 116.0
  endloop
endfacet
facet normal -1.42538647571985e-014 1.0 3.46741147620728e-015
  outer loop
    vertex 6.13629669355816 8.00000000000007 117.035276175612
    vertex 6.0 8.0 120.0
    vertex 6.53589837989519 8.00000000000007 117.999999991397
  endloop
endfacet
facet normal -1.42538647571985e-014 1.0 3.46741147620728e-015
  outer loop
    vertex 6.53589837989519 8.00000000000007 117.999999991397
    vertex 6.0 8.0 120.0
    vertex 7.1715728647171 8.00000000000007 118.828427114209
  endloop
endfacet
facet normal -1.42538647571985e-014 1.0 3.46741147620728e-015
  outer loop
    vertex 7.1715728647171 8.00000000000007 118.828427114209
    vertex 6.0 8.0 120.0
    vertex 7.99999998279362 8.00000000000007 119.464101605204
  endloop
endfacet
facet normal -1.42538647571985e-014 1.0 3.46741147620728e-015
  outer loop
    vertex 7.99999998279362 8.00000000000007 119.464101605204
    vertex 6.0 8.0 120.0
    vertex 8.96472379560089 8.00000000000007 119.863703298728
  endloop
endfacet
facet normal -1.42538647571985e-014 1.0 3.46741147620728e-015
  outer loop
    vertex 8.96472379560089 8.00000000000007 119.863703298728
    vertex 6.0 8.0 120.0
    vertex 9.99999997019768 8.00000000000007 120.0
  endloop
endfacet
facet normal 0.0 -1.0 0.0
  outer loop
    vertex 6.13629669355816 100.0 117.035276175612
    vertex 6.0 100.0 120.0
    vertex 6.0 100.0 116.0
  endloop
endfacet
facet normal 0.0 -1.0 0.0
  outer loop
    vertex 6.0 100.0 120.0
    vertex 6.13629669355816 100.0 117.035276175612
    vertex 6.53589837989519 100.0 117.999999991397
  endloop
endfacet
facet normal 0.0 -1.0 0.0
  outer loop
    vertex 6.0 100.0 120.0
    vertex 6.53589837989519 100.0 117.999999991397
    vertex 7.1715728647171 100.0 118.828427114209
  endloop
endfacet
facet normal 0.0 -1.0 0.0
  outer loop
    vertex 6.0 100.0 120.0
    vertex 7.1715728647171 100.0 118.828427114209
    vertex 7.99999998279362 100.0 119.464101605204
  endloop
endfacet
facet normal 0.0 -1.0 0.0
  outer loop
    vertex 6.0 100.0 120.0
    vertex 7.99999998279362 100.0 119.464101605204
    vertex 8.96472379560089 100.0 119.863703298728
  endloop
endfacet
facet normal 0.0 -1.0 0.0
  outer loop
    vertex 6.0 100.0 120.0
    vertex 8.96472379560089 100.0 119.863703298728
    vertex 9.99999997019768 100.0 120.0
  endloop
endfacet
facet normal 0.965925823717932 -4.88904956186094e-020 0.258819054698132
  outer loop
    vertex 13.863703291015 100.0 117.035276233186
    vertex 13.4641015903025 8.00000000000007 118.000000043016
    vertex 13.863703291015 8.00000000000007 117.035276233186
  endloop
endfacet
facet normal 0.866025397575622 0.0 0.500000010753986
  outer loop
    vertex 13.4641015903025 8.00000000000007 118.000000043016
    vertex 13.863703291015 100.0 117.035276233186
    vertex 13.4641015903025 100.0 118.000000043016
  endloop
endfacet
facet normal 0.0 -1.0 0.0
  outer loop
    vertex 14.0 100.0 120.0
    vertex 13.863703291015 100.0 117.035276233186
    vertex 14.0 100.0 116.0
  endloop
endfacet
facet normal 0.0 -1.0 0.0
  outer loop
    vertex 13.863703291015 100.0 117.035276233186
    vertex 14.0 100.0 120.0
    vertex 13.4641015903025 100.0 118.000000043016
  endloop
endfacet
facet normal 0.0 -1.0 0.0
  outer loop
    vertex 13.4641015903025 100.0 118.000000043016
    vertex 14.0 100.0 120.0
    vertex 12.8284270931361 100.0 118.828427156356
  endloop
endfacet
facet normal 0.0 -1.0 0.0
  outer loop
    vertex 12.8284270931361 100.0 118.828427156356
    vertex 14.0 100.0 120.0
    vertex 11.9999999655872 100.0 119.464101635006
  endloop
endfacet
facet normal 0.0 -1.0 0.0
  outer loop
    vertex 11.9999999655872 100.0 119.464101635006
    vertex 14.0 100.0 120.0
    vertex 11.0352761468254 100.0 119.863703314155
  endloop
endfacet
facet normal 0.0 -1.0 0.0
  outer loop
    vertex 11.0352761468254 100.0 119.863703314155
    vertex 14.0 100.0 120.0
    vertex 9.99999997019768 100.0 120.0
  endloop
endfacet
facet normal 0.866025397575622 0.0 0.500000010753986
  outer loop
    vertex 13.4641015903025 100.0 118.000000043016
    vertex 12.8284270931361 8.00000000000007 118.828427156356
    vertex 13.4641015903025 8.00000000000007 118.000000043016
  endloop
endfacet
facet normal 0.707106773284016 0.0 0.70710678908908
  outer loop
    vertex 12.8284270931361 8.00000000000007 118.828427156356
    vertex 13.4641015903025 100.0 118.000000043016
    vertex 12.8284270931361 100.0 118.828427156356
  endloop
endfacet
facet normal -7.01769131542166e-023 -1.0 1.31865791110246e-014
  outer loop
    vertex 13.863703291015 8.00000000000007 117.035276233186
    vertex 6.0 8.0 116.0
    vertex 14.0 8.0 116.0
  endloop
endfacet
facet normal -7.01769131542166e-023 -1.0 1.31865791110246e-014
  outer loop
    vertex 6.0 8.0 116.0
    vertex 13.863703291015 8.00000000000007 117.035276233186
    vertex 6.13629669355816 8.00000000000007 117.035276175612
  endloop
endfacet
facet normal -7.01769131542166e-023 -1.0 1.31865791110246e-014
  outer loop
    vertex 6.13629669355816 8.00000000000007 117.035276175612
    vertex 13.863703291015 8.00000000000007 117.035276233186
    vertex 6.53589837989519 8.00000000000007 117.999999991397
  endloop
endfacet
facet normal -7.01769131542166e-023 -1.0 1.31865791110246e-014
  outer loop
    vertex 6.53589837989519 8.00000000000007 117.999999991397
    vertex 13.863703291015 8.00000000000007 117.035276233186
    vertex 13.4641015903025 8.00000000000007 118.000000043016
  endloop
endfacet
facet normal -7.01769131542166e-023 -1.0 1.31865791110246e-014
  outer loop
    vertex 6.53589837989519 8.00000000000007 117.999999991397
    vertex 13.4641015903025 8.00000000000007 118.000000043016
    vertex 7.1715728647171 8.00000000000007 118.828427114209
  endloop
endfacet
facet normal -7.01769131542166e-023 -1.0 1.31865791110246e-014
  outer loop
    vertex 7.1715728647171 8.00000000000007 118.828427114209
    vertex 13.4641015903025 8.00000000000007 118.000000043016
    vertex 12.8284270931361 8.00000000000007 118.828427156356
  endloop
endfacet
facet normal -7.01769131542166e-023 -1.0 1.31865791110246e-014
  outer loop
    vertex 7.1715728647171 8.00000000000007 118.828427114209
    vertex 12.8284270931361 8.00000000000007 118.828427156356
    vertex 7.99999998279362 8.00000000000007 119.464101605204
  endloop
endfacet
facet normal -7.01769131542166e-023 -1.0 1.31865791110246e-014
  outer loop
    vertex 7.99999998279362 8.00000000000007 119.464101605204
    vertex 12.8284270931361 8.00000000000007 118.828427156356
    vertex 11.9999999655872 8.00000000000007 119.464101635006
  endloop
endfacet
facet normal -7.01769131542166e-023 -1.0 1.31865791110246e-014
  outer loop
    vertex 7.99999998279362 8.00000000000007 119.464101605204
    vertex 11.9999999655872 8.00000000000007 119.464101635006
    vertex 8.96472379560089 8.00000000000007 119.863703298728
  endloop
endfacet
facet normal -7.01769131542166e-023 -1.0 1.31865791110246e-014
  outer loop
    vertex 8.96472379560089 8.00000000000007 119.863703298728
    vertex 11.9999999655872 8.00000000000007 119.464101635006
    vertex 11.0352761468254 8.00000000000007 119.863703314155
  endloop
endfacet
facet normal -7.01769131542166e-023 -1.0 1.31865791110246e-014
  outer loop
    vertex 8.96472379560089 8.00000000000007 119.863703298728
    vertex 11.0352761468254 8.00000000000007 119.863703314155
    vertex 9.99999997019768 8.00000000000007 120.0
  endloop
endfacet
facet normal 0.707106773284016 0.0 0.70710678908908
  outer loop
    vertex 12.8284270931361 8.00000000000007 118.828427156356
    vertex 11.9999999655872 100.0 119.464101635006
    vertex 11.9999999655872 8.00000000000007 119.464101635006
  endloop
endfacet
facet normal 0.49999999139681 0.0 0.866025408751493
  outer loop
    vertex 11.9999999655872 100.0 119.464101635006
    vertex 12.8284270931361 8.00000000000007 118.828427156356
    vertex 12.8284270931361 100.0 118.828427156356
  endloop
endfacet
facet normal 0.49999999139681 0.0 0.866025408751493
  outer loop
    vertex 11.9999999655872 8.00000000000007 119.464101635006
    vertex 11.0352761468254 100.0 119.863703314155
    vertex 11.0352761468254 8.00000000000007 119.863703314155
  endloop
endfacet
facet normal 0.258819036706354 3.30568938698972e-020 0.965925828538814
  outer loop
    vertex 11.0352761468254 100.0 119.863703314155
    vertex 11.9999999655872 8.00000000000007 119.464101635006
    vertex 11.9999999655872 100.0 119.464101635006
  endloop
endfacet
facet normal 0.258819036706354 3.30568938698972e-020 0.965925828538814
  outer loop
    vertex 11.0352761468254 8.00000000000007 119.863703314155
    vertex 9.99999997019768 100.0 120.0
    vertex 9.99999997019768 8.00000000000007 120.0
  endloop
endfacet
facet normal 0.130526184217633 6.55481751259359e-020 0.991444862427349
  outer loop
    vertex 9.99999997019768 100.0 120.0
    vertex 11.0352761468254 8.00000000000007 119.863703314155
    vertex 11.0352761468254 100.0 119.863703314155
  endloop
endfacet
facet normal -0.130526198991313 -6.90366512490176e-020 0.991444860482357
  outer loop
    vertex 9.99999997019768 8.00000000000007 120.0
    vertex 8.96472379560089 100.0 119.863703298728
    vertex 8.96472379560089 8.00000000000007 119.863703298728
  endloop
endfacet
facet normal -0.258819051099774 -3.48161828927697e-020 0.965925824682109
  outer loop
    vertex 8.96472379560089 100.0 119.863703298728
    vertex 9.99999997019768 8.00000000000007 120.0
    vertex 9.99999997019768 100.0 120.0
  endloop
endfacet
facet normal -0.258819051099774 -3.48161828927697e-020 0.965925824682109
  outer loop
    vertex 8.96472379560089 8.00000000000007 119.863703298728
    vertex 7.99999998279362 100.0 119.464101605204
    vertex 7.99999998279362 8.00000000000007 119.464101605204
  endloop
endfacet
facet normal -0.500000004301598 0.0 0.86602540130091
  outer loop
    vertex 7.99999998279362 100.0 119.464101605204
    vertex 8.96472379560089 8.00000000000007 119.863703298728
    vertex 8.96472379560089 100.0 119.863703298728
  endloop
endfacet
facet normal -0.500000004301598 0.0 0.86602540130091
  outer loop
    vertex 7.99999998279362 8.00000000000007 119.464101605204
    vertex 7.1715728647171 100.0 118.828427114209
    vertex 7.1715728647171 8.00000000000007 118.828427114209
  endloop
endfacet
facet normal -0.707106783820724 0.0 0.707106778552371
  outer loop
    vertex 7.1715728647171 100.0 118.828427114209
    vertex 7.99999998279362 8.00000000000007 119.464101605204
    vertex 7.99999998279362 100.0 119.464101605204
  endloop
endfacet
facet normal -0.707106783820724 0.0 0.707106778552371
  outer loop
    vertex 7.1715728647171 100.0 118.828427114209
    vertex 6.53589837989519 8.00000000000007 117.999999991397
    vertex 7.1715728647171 8.00000000000007 118.828427114209
  endloop
endfacet
facet normal -0.866025405026202 0.0 0.499999997849204
  outer loop
    vertex 6.53589837989519 8.00000000000007 117.999999991397
    vertex 7.1715728647171 100.0 118.828427114209
    vertex 6.53589837989519 100.0 117.999999991397
  endloop
endfacet
facet normal -0.866025405026202 0.0 0.499999997849204
  outer loop
    vertex 6.53589837989519 100.0 117.999999991397
    vertex 6.13629669355816 8.00000000000007 117.035276175612
    vertex 6.53589837989519 8.00000000000007 117.999999991397
  endloop
endfacet
facet normal -0.965925826610462 -1.58335837646722e-020 0.258819043903064
  outer loop
    vertex 6.13629669355816 8.00000000000007 117.035276175612
    vertex 6.53589837989519 100.0 117.999999991397
    vertex 6.13629669355816 100.0 117.035276175612
  endloop
endfacet
facet normal -0.965925826610462 -1.58335837646722e-020 0.258819043903064
  outer loop
    vertex 6.13629669355816 8.00000000000007 117.035276175612
    vertex 6.0 100.0 116.0
    vertex 6.0 8.0 116.0
  endloop
endfacet
facet normal -0.991444861454852 -3.13962505237978e-020 0.130526191604483
  outer loop
    vertex 6.0 100.0 116.0
    vertex 6.13629669355816 8.00000000000007 117.035276175612
    vertex 6.13629669355816 100.0 117.035276175612
  endloop
endfacet
facet normal 1.42538644282586e-014 1.0 3.46741115020765e-015
  outer loop
    vertex 13.863703291015 8.00000000000007 117.035276233186
    vertex 14.0 8.0 120.0
    vertex 14.0 8.0 116.0
  endloop
endfacet
facet normal 1.42538644282586e-014 1.0 3.46741115020765e-015
  outer loop
    vertex 14.0 8.0 120.0
    vertex 13.863703291015 8.00000000000007 117.035276233186
    vertex 13.4641015903025 8.00000000000007 118.000000043016
  endloop
endfacet
facet normal 1.42538644282586e-014 1.0 3.46741115020765e-015
  outer loop
    vertex 14.0 8.0 120.0
    vertex 13.4641015903025 8.00000000000007 118.000000043016
    vertex 12.8284270931361 8.00000000000007 118.828427156356
  endloop
endfacet
facet normal 1.42538644282586e-014 1.0 3.46741115020765e-015
  outer loop
    vertex 14.0 8.0 120.0
    vertex 12.8284270931361 8.00000000000007 118.828427156356
    vertex 11.9999999655872 8.00000000000007 119.464101635006
  endloop
endfacet
facet normal 1.42538644282586e-014 1.0 3.46741115020765e-015
  outer loop
    vertex 14.0 8.0 120.0
    vertex 11.9999999655872 8.00000000000007 119.464101635006
    vertex 11.0352761468254 8.00000000000007 119.863703314155
  endloop
endfacet
facet normal 1.42538644282586e-014 1.0 3.46741115020765e-015
  outer loop
    vertex 14.0 8.0 120.0
    vertex 11.0352761468254 8.00000000000007 119.863703314155
    vertex 9.99999997019768 8.00000000000007 120.0
  endloop
endfacet
endsolid Bobina holder v 2  part1
